<?xml version="1.0" encoding="UTF-8" ?>
<!DOCTYPE svg PUBLIC "-//W3C//DTD SVG 1.1//EN" "http://www.w3.org/Graphics/SVG/1.1/DTD/svg11.dtd">
<svg width="600pt" height="500pt" viewBox="0 0 600 500" version="1.1" xmlns="http://www.w3.org/2000/svg">
<g id="#0a0a0ae1">
<path fill="#0a0a0a" opacity="0.88" d=" M 274.52 6.74 C 327.90 3.35 382.12 10.90 432.18 29.90 C 476.17 46.73 517.33 72.91 547.86 109.11 C 571.94 137.71 588.64 173.12 592.21 210.56 C 596.37 250.29 585.10 290.88 563.23 324.07 C 541.70 357.38 510.70 383.79 476.40 403.28 C 440.00 424.09 399.43 437.08 358.09 443.56 C 306.33 451.50 252.94 448.96 202.25 435.76 C 196.09 434.40 190.18 431.92 183.98 430.83 C 140.56 444.05 97.29 457.82 53.92 471.23 C 51.80 472.20 48.77 471.47 48.33 468.90 C 48.48 467.20 49.40 465.72 50.13 464.22 C 64.19 437.68 78.27 411.14 92.36 384.62 C 89.48 381.63 85.54 379.44 82.39 376.57 C 65.02 362.25 49.22 345.83 36.74 327.03 C 19.98 302.42 8.87 273.78 5.85 244.09 C 2.26 210.74 9.46 176.58 24.89 146.90 C 42.97 111.81 71.59 82.95 104.35 61.31 C 154.70 28.00 214.53 10.51 274.52 6.74 M 147.75 40.76 C 109.41 58.31 73.99 83.55 47.84 116.89 C 26.98 143.37 12.58 175.35 9.01 209.02 C 5.47 240.36 11.43 272.53 25.16 300.86 C 41.12 334.04 66.72 361.92 96.37 383.41 C 81.36 411.99 66.13 440.45 51.03 468.98 C 94.66 455.36 138.30 441.78 181.93 428.17 C 184.83 426.90 187.77 428.62 190.57 429.32 C 239.50 444.01 291.42 448.20 342.14 442.60 C 383.65 437.93 424.55 426.56 461.86 407.66 C 492.11 392.33 520.04 371.97 542.46 346.42 C 564.95 320.86 581.55 289.60 587.43 255.89 C 593.72 221.20 588.22 184.72 572.80 153.08 C 556.11 118.34 528.82 89.50 497.41 67.56 C 444.12 30.53 379.40 11.99 314.93 9.34 C 257.83 7.07 199.88 17.00 147.75 40.76 Z" />
</g>
<g id="#ffffffff">
<path fill="#ffffff" opacity="1.00" d=" M 147.75 40.76 C 199.88 17.00 257.83 7.07 314.93 9.34 C 379.40 11.99 444.12 30.53 497.41 67.56 C 528.82 89.50 556.11 118.34 572.80 153.08 C 588.22 184.72 593.72 221.20 587.43 255.89 C 581.55 289.60 564.95 320.86 542.46 346.42 C 520.04 371.97 492.11 392.33 461.86 407.66 C 424.55 426.56 383.65 437.93 342.14 442.60 C 291.42 448.20 239.50 444.01 190.57 429.32 C 187.77 428.62 184.83 426.90 181.93 428.17 C 138.30 441.78 94.66 455.36 51.03 468.98 C 66.13 440.45 81.36 411.99 96.37 383.41 C 66.72 361.92 41.12 334.04 25.16 300.86 C 11.43 272.53 5.47 240.36 9.01 209.02 C 12.58 175.35 26.98 143.37 47.84 116.89 C 73.99 83.55 109.41 58.31 147.75 40.76 Z" />
</g>
</svg>
