<?xml version="1.0" encoding="UTF-8" ?>
<!DOCTYPE svg PUBLIC "-//W3C//DTD SVG 1.1//EN" "http://www.w3.org/Graphics/SVG/1.1/DTD/svg11.dtd">
<svg width="1000pt" height="1000pt" viewBox="0 0 1000 1000" version="1.1" xmlns="http://www.w3.org/2000/svg">
<g id="#ffccccff">
<path fill="#ffcccc" opacity="1.00" d=" M 211.59 102.52 C 212.53 102.48 213.47 102.43 214.42 102.38 C 214.46 102.85 214.52 103.78 214.56 104.25 C 214.56 105.35 215.11 106.33 215.80 107.16 C 252.26 146.37 288.66 185.65 325.05 224.93 C 334.74 235.11 343.96 245.73 353.92 255.65 C 336.78 265.06 319.26 273.77 302.00 282.96 C 274.58 297.19 247.26 311.61 219.82 325.79 C 216.80 327.36 213.90 329.11 211.02 330.91 C 210.28 317.58 210.49 304.22 209.96 290.88 C 209.50 283.85 211.69 276.98 211.24 269.94 C 210.84 257.71 212.12 245.40 210.55 233.22 C 210.41 211.74 210.74 190.23 210.77 168.74 C 211.01 168.23 211.49 167.20 211.73 166.69 L 210.38 166.33 C 211.09 164.97 211.39 163.53 211.31 162.02 C 211.24 142.19 211.76 122.35 211.59 102.52 Z" />
<path fill="#ffcccc" opacity="1.00" d=" M 788.83 102.60 C 789.28 102.68 790.17 102.85 790.62 102.93 C 790.00 123.30 790.35 143.68 790.33 164.04 C 790.50 219.04 790.98 274.04 790.93 329.03 C 779.59 322.63 767.87 316.94 756.40 310.78 C 720.26 291.97 684.18 273.05 648.04 254.25 C 667.43 233.88 686.31 213.05 705.53 192.52 C 729.89 166.20 754.30 139.92 778.69 113.63 C 779.76 112.38 780.76 111.02 781.35 109.46 C 781.46 109.06 781.68 108.26 781.79 107.86 C 784.70 106.89 786.27 104.07 788.83 102.60 Z" />
</g>
<g id="#ffffffff">
<path fill="#ffffff" opacity="1.00" d=" M 787.28 102.27 C 788.71 102.32 790.14 102.40 791.58 102.50 C 791.33 116.93 791.85 131.36 791.58 145.79 L 792.35 145.37 C 792.43 169.34 792.43 193.34 792.86 217.29 L 794.06 217.97 L 792.89 218.71 L 792.36 220.87 L 793.39 220.14 C 793.24 251.96 793.80 283.78 793.77 315.59 L 794.47 315.19 C 794.46 320.32 794.29 325.47 794.60 330.59 C 795.43 332.27 796.95 333.48 798.19 334.86 C 824.54 362.22 845.80 394.82 858.28 430.81 C 871.04 467.21 874.34 506.90 867.51 544.87 C 861.90 576.84 849.16 607.37 831.46 634.51 C 802.44 678.88 760.86 714.09 714.59 739.46 C 648.63 775.55 573.01 792.44 498.05 791.98 C 448.09 791.68 398.09 783.67 350.82 767.40 C 312.99 754.38 276.88 736.04 244.75 712.14 C 212.96 688.52 185.03 659.29 164.75 625.17 C 144.33 591.05 132.15 551.83 131.10 512.00 C 130.04 477.22 137.35 442.30 151.77 410.67 C 163.89 383.87 180.85 359.38 200.90 337.91 C 203.71 334.87 206.70 331.99 209.34 328.80 C 209.42 307.56 209.68 286.33 209.66 265.10 L 210.38 265.92 C 210.35 255.02 210.34 244.12 210.55 233.22 C 212.12 245.40 210.84 257.71 211.24 269.94 C 211.69 276.98 209.50 283.85 209.96 290.88 C 210.49 304.22 210.28 317.58 211.02 330.91 C 213.90 329.11 216.80 327.36 219.82 325.79 C 247.26 311.61 274.58 297.19 302.00 282.96 C 319.26 273.77 336.78 265.06 353.92 255.65 C 343.96 245.73 334.74 235.11 325.05 224.93 C 288.66 185.65 252.26 146.37 215.80 107.16 C 215.11 106.33 214.56 105.35 214.56 104.25 L 214.96 102.16 L 215.71 104.65 L 217.51 104.41 L 217.45 105.43 L 218.61 105.57 L 218.44 106.72 L 219.56 106.29 L 219.62 107.64 C 220.07 107.51 220.97 107.26 221.42 107.13 L 221.32 108.50 L 222.56 108.50 L 222.60 109.78 C 223.04 109.65 223.94 109.38 224.38 109.24 L 224.24 110.63 L 225.05 110.60 C 225.47 110.89 226.31 111.46 226.73 111.74 L 226.57 112.64 C 227.05 112.56 228.02 112.41 228.50 112.34 L 228.38 113.79 L 229.61 113.31 L 229.55 114.73 C 230.02 114.65 230.96 114.50 231.43 114.42 L 231.35 115.76 L 232.53 115.33 L 232.42 116.61 L 233.72 116.50 L 233.55 117.80 C 234.01 117.65 234.95 117.35 235.42 117.20 L 235.36 118.56 L 236.72 118.48 L 236.53 119.93 C 236.99 119.75 237.90 119.41 238.36 119.23 L 238.34 120.60 L 239.33 120.46 L 239.56 121.50 L 240.64 121.57 L 240.50 122.09 C 243.01 123.44 245.08 125.45 247.59 126.80 L 247.37 127.62 L 248.65 127.30 L 248.59 128.67 C 249.06 128.56 250.01 128.35 250.48 128.24 L 250.32 129.66 L 251.66 129.34 L 251.49 130.78 C 251.96 130.64 252.92 130.35 253.39 130.21 L 253.31 131.65 L 254.67 131.41 L 254.33 132.67 C 254.74 132.63 255.56 132.53 255.97 132.49 C 256.65 134.54 259.30 134.42 260.02 136.43 C 260.39 136.43 261.13 136.43 261.50 136.42 L 261.59 137.16 C 262.89 138.06 264.16 139.00 265.55 139.77 L 265.38 140.58 L 266.66 140.31 L 266.65 141.61 C 267.10 141.53 268.00 141.37 268.45 141.28 L 268.51 142.73 C 268.98 142.67 269.90 142.54 270.37 142.48 C 270.42 142.98 270.53 143.99 270.59 144.49 C 271.07 144.46 272.03 144.38 272.51 144.35 L 272.45 145.61 C 272.94 145.57 273.93 145.49 274.43 145.45 C 274.46 145.92 274.51 146.86 274.54 147.32 C 275.28 147.40 276.77 147.55 277.51 147.62 C 277.51 148.00 277.49 148.77 277.49 149.15 C 279.02 149.42 280.51 149.85 280.97 151.54 C 281.36 151.51 282.13 151.46 282.52 151.43 L 282.39 152.67 L 283.65 152.37 L 283.60 153.77 C 284.05 153.67 284.95 153.48 285.40 153.38 L 285.32 154.69 L 286.59 154.46 L 286.44 155.73 C 286.91 155.67 287.86 155.55 288.33 155.49 C 288.41 156.01 288.56 157.04 288.63 157.56 C 289.14 157.51 290.16 157.41 290.67 157.37 L 290.24 159.32 L 291.45 157.28 L 291.47 159.52 C 292.01 159.50 293.08 159.46 293.61 159.44 L 293.43 160.60 C 293.93 160.59 294.93 160.58 295.43 160.57 C 295.44 160.96 295.47 161.73 295.48 162.12 C 297.00 162.40 298.47 162.90 298.99 164.52 C 299.38 164.46 300.16 164.34 300.55 164.29 L 300.36 165.53 L 301.63 165.44 L 301.64 166.80 C 302.09 166.68 302.99 166.43 303.44 166.31 L 303.27 167.63 L 304.51 167.49 L 304.55 168.75 C 305.01 168.69 305.94 168.57 306.40 168.51 C 306.46 169.02 306.57 170.03 306.63 170.53 C 307.10 170.48 308.05 170.37 308.52 170.31 L 308.45 171.60 L 309.76 171.30 L 309.62 172.73 C 310.10 172.60 311.06 172.35 311.54 172.22 L 311.36 173.65 L 312.67 173.31 L 312.46 174.63 C 313.01 174.61 314.11 174.55 314.65 174.53 L 314.58 176.66 L 315.88 174.09 L 315.27 176.61 L 316.62 176.29 L 316.56 177.67 C 317.03 177.54 317.99 177.27 318.46 177.13 L 318.29 178.54 L 319.62 178.46 L 319.59 179.83 C 320.03 179.68 320.93 179.37 321.37 179.22 L 321.21 180.57 L 322.46 180.53 L 322.53 181.72 C 322.98 181.67 323.88 181.57 324.32 181.52 C 324.41 182.01 324.57 182.97 324.66 183.45 C 325.11 183.42 326.03 183.35 326.48 183.31 L 326.43 184.60 L 327.70 184.33 L 327.58 185.68 C 328.04 185.57 328.97 185.35 329.43 185.24 L 329.35 186.66 L 330.74 186.44 L 330.50 187.88 C 330.98 187.71 331.94 187.37 332.42 187.20 L 332.35 188.63 L 333.76 188.45 L 333.49 189.96 C 333.96 189.79 334.91 189.45 335.38 189.28 L 335.33 190.66 L 336.46 190.45 L 336.44 191.65 L 337.66 191.48 L 337.49 192.73 C 337.96 192.61 338.89 192.36 339.36 192.24 L 339.21 193.60 L 340.47 193.48 L 340.51 194.19 C 341.87 195.01 343.17 195.92 344.52 196.76 L 344.40 197.58 L 345.66 197.35 L 345.60 198.67 C 346.06 198.55 346.97 198.32 347.43 198.21 L 347.36 199.63 L 348.67 199.38 L 348.37 200.62 C 348.80 200.58 349.66 200.49 350.09 200.44 C 350.39 202.28 352.02 202.58 353.59 202.83 C 353.56 203.20 353.50 203.94 353.47 204.31 C 354.24 204.40 355.76 204.58 356.52 204.68 C 356.53 205.12 356.55 206.01 356.55 206.46 C 357.04 206.44 358.01 206.40 358.50 206.38 L 358.58 207.14 C 359.88 208.03 361.16 208.99 362.56 209.75 L 362.40 210.56 L 363.65 210.30 L 363.67 211.55 C 364.11 211.49 364.98 211.36 365.42 211.30 L 365.54 212.71 C 365.90 212.68 366.64 212.63 367.00 212.61 C 367.42 213.81 368.26 214.53 369.50 214.79 L 369.45 215.70 C 369.86 215.63 370.68 215.51 371.10 215.45 C 371.26 217.38 372.98 217.54 374.54 217.79 C 374.52 218.14 374.48 218.84 374.46 219.19 C 375.97 219.47 377.60 219.73 377.91 221.54 C 378.31 221.50 379.12 221.42 379.53 221.38 L 379.30 222.45 L 380.38 222.42 L 380.65 223.25 C 381.61 223.79 382.59 224.31 383.58 224.82 L 383.46 225.76 C 383.92 225.70 384.84 225.58 385.29 225.52 C 385.39 226.04 385.59 227.08 385.69 227.60 C 386.14 227.53 387.05 227.39 387.50 227.32 L 387.50 228.61 C 387.99 228.59 388.96 228.55 389.45 228.53 C 389.46 228.91 389.47 229.67 389.48 230.05 C 390.64 230.43 391.79 230.86 392.93 231.34 C 449.86 218.15 509.19 215.51 567.07 223.56 C 582.05 225.52 596.81 228.76 611.59 231.78 L 611.64 230.27 C 612.10 230.39 613.02 230.62 613.48 230.74 L 613.41 229.39 L 614.71 229.67 L 614.53 228.25 C 615.00 228.35 615.95 228.55 616.42 228.65 L 616.36 227.27 L 617.64 227.71 L 617.51 226.79 C 618.84 225.96 620.14 225.07 621.48 224.23 L 621.53 223.47 L 622.77 223.66 L 622.63 222.31 C 623.09 222.41 623.99 222.60 624.45 222.69 L 624.30 221.64 L 625.35 221.40 L 625.81 220.48 L 626.72 220.65 L 626.62 219.30 C 627.07 219.43 627.98 219.70 628.43 219.84 L 628.57 218.28 L 630.57 218.51 L 628.90 216.65 C 629.54 216.98 630.82 217.64 631.47 217.97 L 631.26 216.48 L 632.68 216.63 L 632.55 215.17 C 633.03 215.31 633.99 215.59 634.47 215.73 L 634.35 214.34 L 635.65 214.62 L 635.52 213.29 C 635.90 213.32 636.65 213.38 637.03 213.41 C 637.49 212.30 638.30 211.58 639.45 211.23 L 639.55 210.46 L 640.81 210.70 L 640.60 209.34 C 641.06 209.43 641.97 209.61 642.42 209.70 L 642.42 208.62 L 643.50 208.51 L 643.63 207.45 L 644.62 207.66 L 644.62 206.35 C 645.08 206.48 645.99 206.74 646.44 206.87 L 646.31 205.45 L 647.65 205.59 L 647.52 204.20 C 648.00 204.37 648.97 204.69 649.45 204.86 L 649.26 203.37 L 650.60 203.72 L 650.37 202.42 C 650.90 202.45 651.97 202.53 652.50 202.56 L 652.64 200.32 L 653.75 202.42 L 653.37 200.38 C 653.90 200.40 654.97 200.45 655.50 200.47 C 655.52 199.99 655.57 199.02 655.59 198.54 C 656.06 198.57 657.00 198.65 657.46 198.69 L 657.62 197.36 C 658.05 197.42 658.92 197.55 659.35 197.61 L 659.30 196.29 L 660.12 196.45 C 660.51 196.15 661.27 195.55 661.66 195.25 L 661.60 194.30 C 662.04 194.37 662.93 194.53 663.37 194.61 L 663.44 193.32 L 664.57 193.60 L 664.33 192.32 L 665.65 192.69 L 665.45 191.55 C 665.97 191.54 667.01 191.53 667.53 191.53 L 667.65 189.36 L 668.62 191.52 L 668.34 189.48 C 668.87 189.50 669.95 189.54 670.48 189.56 C 670.50 189.09 670.54 188.15 670.56 187.68 C 671.33 187.60 672.87 187.44 673.63 187.37 C 673.59 187.00 673.51 186.27 673.47 185.91 C 674.92 185.55 676.54 185.26 676.95 183.56 C 677.33 183.58 678.10 183.62 678.48 183.64 L 678.38 182.37 L 679.67 182.64 L 679.58 181.27 C 680.02 181.39 680.92 181.63 681.37 181.75 L 681.33 180.43 L 682.57 180.53 L 682.40 179.34 C 682.81 179.38 683.64 179.45 684.05 179.49 C 684.39 177.75 685.92 177.36 687.44 177.08 C 687.48 176.68 687.56 175.89 687.59 175.49 C 688.08 175.52 689.06 175.57 689.55 175.59 L 689.43 174.37 C 689.93 174.41 690.94 174.48 691.44 174.52 C 691.47 174.10 691.53 173.28 691.56 172.87 C 693.05 172.59 694.53 172.17 694.97 170.51 C 695.38 170.55 696.19 170.64 696.60 170.68 L 696.33 169.38 L 697.64 169.67 L 697.60 168.30 C 698.04 168.40 698.94 168.60 699.39 168.70 L 699.33 167.38 L 700.56 167.58 L 700.42 166.41 C 700.82 166.41 701.62 166.42 702.01 166.43 C 702.39 164.81 703.82 164.41 705.26 164.14 C 705.43 163.62 705.76 162.59 705.92 162.07 L 707.86 163.45 L 706.43 160.79 L 708.49 162.54 L 708.36 160.54 C 708.94 160.51 710.09 160.44 710.67 160.40 L 710.36 159.20 L 711.83 159.79 L 711.29 158.34 L 712.64 158.79 L 712.61 157.35 C 713.07 157.47 713.99 157.71 714.45 157.82 L 714.50 156.81 C 715.82 155.97 717.11 155.06 718.45 154.21 L 718.50 153.44 L 719.76 153.70 L 719.64 152.37 C 720.08 152.44 720.96 152.59 721.40 152.67 L 721.51 151.32 C 721.95 151.36 722.82 151.42 723.26 151.46 C 723.35 150.95 723.54 149.94 723.64 149.43 C 724.12 149.50 725.08 149.63 725.56 149.70 L 725.43 148.44 L 726.76 148.53 L 726.58 147.07 C 727.05 147.26 727.98 147.66 728.45 147.86 L 728.31 146.59 L 729.59 146.60 L 729.42 145.34 L 730.62 145.76 L 730.52 144.45 C 731.00 144.52 731.97 144.67 732.46 144.74 L 732.50 143.35 C 732.88 143.36 733.65 143.38 734.04 143.39 C 734.77 141.49 737.20 141.39 738.01 139.54 C 738.39 139.55 739.14 139.59 739.51 139.60 L 739.46 138.36 L 740.61 138.72 L 740.59 137.38 C 741.05 137.40 741.97 137.44 742.43 137.46 L 742.43 136.76 C 742.79 136.42 743.52 135.76 743.88 135.42 L 744.71 135.56 L 744.57 134.13 C 745.02 134.32 745.92 134.72 746.37 134.91 L 746.30 133.49 L 747.66 133.51 L 747.55 132.09 C 748.01 132.27 748.95 132.63 749.41 132.81 L 749.25 131.32 L 750.36 131.60 L 750.52 130.44 L 751.74 130.53 L 751.54 129.33 C 752.01 129.43 752.97 129.62 753.44 129.72 L 753.32 128.32 L 754.60 128.69 L 754.55 127.32 C 755.00 127.40 755.90 127.56 756.35 127.64 L 756.32 126.26 L 757.27 126.59 C 757.62 126.28 758.32 125.66 758.67 125.35 L 758.61 124.31 C 759.05 124.39 759.93 124.55 760.38 124.63 L 760.43 123.35 L 761.23 123.61 C 761.58 123.27 762.29 122.59 762.65 122.25 L 762.56 121.39 C 763.01 121.47 763.91 121.64 764.36 121.73 L 764.32 120.32 L 765.55 120.54 L 765.44 119.31 C 765.85 119.38 766.68 119.52 767.10 119.59 C 767.27 117.68 768.91 117.41 770.50 117.20 C 770.52 116.78 770.54 115.95 770.56 115.53 C 771.06 115.55 772.07 115.60 772.58 115.63 L 772.59 114.29 C 773.02 114.37 773.89 114.52 774.33 114.60 L 774.40 113.25 L 775.62 113.62 L 775.30 112.32 L 776.63 112.60 L 776.57 111.31 C 777.02 111.41 777.94 111.60 778.39 111.69 L 778.31 110.38 L 779.51 110.60 L 779.43 109.37 L 781.35 109.46 C 780.76 111.02 779.76 112.38 778.69 113.63 C 754.30 139.92 729.89 166.20 705.53 192.52 C 686.31 213.05 667.43 233.88 648.04 254.25 C 684.18 273.05 720.26 291.97 756.40 310.78 C 767.87 316.94 779.59 322.63 790.93 329.03 C 790.98 274.04 790.50 219.04 790.33 164.04 C 790.35 143.68 790.00 123.30 790.62 102.93 C 790.17 102.85 789.28 102.68 788.83 102.60 L 787.28 102.27 M 322.57 361.71 C 305.10 364.70 290.27 380.00 289.12 397.90 C 288.09 409.60 292.84 421.55 301.44 429.52 C 309.97 437.73 322.14 441.85 333.91 440.84 C 346.77 439.96 359.04 432.73 365.92 421.82 C 371.68 412.83 373.47 401.40 370.68 391.10 C 368.37 382.12 362.67 374.13 355.11 368.81 C 345.84 362.12 333.78 359.62 322.57 361.71 M 640.45 361.74 C 624.05 364.65 609.94 378.28 607.50 394.92 C 605.36 407.74 610.29 421.37 619.98 430.00 C 628.00 437.44 639.05 441.39 649.96 440.94 C 662.51 440.67 674.77 434.36 682.24 424.27 C 687.83 416.80 690.63 407.27 689.84 397.96 C 689.05 386.61 682.87 375.87 673.68 369.23 C 664.30 362.18 651.92 359.59 640.45 361.74 M 183.91 453.03 C 183.59 454.88 181.85 454.71 180.40 454.84 C 180.39 455.42 180.36 456.58 180.35 457.16 C 178.36 459.00 178.13 463.28 180.36 465.00 C 180.35 465.57 180.33 466.70 180.32 467.27 C 181.80 467.45 183.42 467.53 184.15 469.08 C 185.75 469.33 187.75 468.79 188.90 470.31 C 190.09 470.60 191.26 470.98 192.06 471.99 C 193.77 472.62 195.42 473.39 197.09 474.11 C 198.00 475.05 199.21 475.49 200.46 475.79 C 201.90 476.66 203.40 477.43 204.84 478.31 C 206.05 478.56 207.22 478.95 208.02 479.95 C 209.25 480.15 210.29 480.69 211.14 481.57 C 211.62 481.63 212.59 481.74 213.08 481.79 C 213.74 482.98 214.93 483.46 216.21 483.74 C 217.22 484.30 218.28 484.75 219.39 485.09 C 219.69 485.45 220.27 486.17 220.56 486.53 C 222.75 486.78 225.69 485.67 227.08 487.94 C 228.32 488.10 229.37 488.63 230.22 489.53 C 230.70 489.59 231.64 489.72 232.11 489.78 C 234.26 491.97 237.56 492.31 239.95 494.20 C 241.13 494.45 242.23 494.93 243.07 495.83 C 244.76 496.52 246.42 497.29 248.09 498.03 C 248.95 498.92 250.08 499.37 251.26 499.71 C 252.23 500.29 253.27 500.70 254.39 500.95 C 254.71 501.29 255.34 501.98 255.66 502.33 C 256.99 502.32 258.15 502.78 259.00 503.82 C 260.70 504.52 262.37 505.30 264.09 505.97 C 264.37 506.25 264.93 506.82 265.21 507.10 C 268.74 507.07 272.33 507.80 274.99 510.32 C 275.42 510.38 276.29 510.51 276.73 510.57 C 277.66 511.50 278.87 512.02 280.04 512.57 C 283.27 514.65 287.45 513.17 291.08 513.52 C 291.97 512.44 293.15 511.93 294.63 512.00 C 294.67 511.38 294.76 510.14 294.80 509.52 C 295.26 509.21 296.17 508.57 296.62 508.25 C 296.14 506.12 297.70 502.66 294.78 501.97 C 294.81 501.38 294.87 500.19 294.90 499.59 C 293.43 499.46 291.86 499.26 291.08 497.82 C 288.07 497.95 285.47 496.40 283.03 494.85 C 281.83 494.58 280.73 494.09 279.91 493.16 C 278.72 492.91 277.69 492.37 276.82 491.54 C 276.34 491.47 275.37 491.34 274.89 491.27 C 272.79 489.05 269.46 488.76 267.12 486.85 C 266.09 486.48 265.09 486.07 264.11 485.61 C 262.97 484.99 261.83 484.34 260.80 483.57 C 260.33 483.50 259.41 483.37 258.95 483.30 C 257.78 481.92 256.03 481.36 254.46 480.61 C 252.38 479.74 249.13 481.35 248.19 478.61 C 246.49 478.58 244.79 478.56 243.10 478.52 C 239.17 475.77 234.64 473.85 230.24 471.96 C 228.46 470.40 226.15 469.70 224.01 468.82 C 223.17 467.86 222.04 467.40 220.81 467.23 C 218.51 465.31 215.42 464.82 213.05 463.02 C 211.86 462.77 210.85 462.21 210.02 461.36 C 209.53 461.30 208.55 461.18 208.06 461.12 C 207.40 459.91 206.22 459.43 204.94 459.21 C 202.49 457.64 199.89 456.05 196.86 456.21 C 196.22 454.94 194.98 454.60 193.67 454.47 C 191.57 451.55 187.02 453.58 183.91 453.03 M 771.02 453.14 C 770.82 453.52 770.42 454.27 770.21 454.65 C 769.69 454.67 768.65 454.73 768.13 454.75 C 767.57 456.11 766.29 456.46 765.01 456.72 C 764.04 457.32 763.02 457.81 761.95 458.18 C 761.03 459.11 759.87 459.61 758.62 459.85 C 757.15 460.73 755.64 461.50 754.19 462.39 C 752.87 462.57 751.66 462.99 751.06 464.27 C 750.56 464.32 749.58 464.43 749.09 464.48 C 748.21 465.32 747.18 465.87 745.98 466.13 C 745.15 467.23 743.88 467.60 742.56 467.67 C 742.26 467.99 741.65 468.63 741.35 468.94 C 739.86 469.36 738.56 470.42 737.00 470.53 C 735.26 470.81 732.95 470.06 732.01 472.03 C 730.27 472.63 728.59 473.39 726.91 474.10 C 726.03 474.99 724.91 475.50 723.71 475.73 C 722.21 476.62 720.65 477.41 719.18 478.33 C 717.84 478.52 716.60 478.93 715.99 480.23 C 714.28 480.28 712.58 480.30 710.89 480.34 C 709.57 482.74 705.91 480.59 704.94 483.36 C 704.41 483.37 703.36 483.39 702.83 483.40 C 701.97 484.41 701.11 485.41 700.24 486.40 C 698.95 486.53 697.67 486.76 696.96 487.96 C 695.08 488.65 693.26 489.52 691.31 489.97 C 691.29 490.56 691.26 491.73 691.24 492.32 C 688.06 493.51 690.12 497.73 689.44 500.30 C 689.90 500.59 690.82 501.17 691.28 501.46 C 691.30 502.10 691.35 503.38 691.38 504.02 C 692.87 503.94 694.07 504.45 694.99 505.56 C 696.68 505.59 698.37 505.59 700.07 505.57 C 701.04 503.77 703.17 504.31 704.86 504.05 C 705.55 502.86 706.74 502.38 708.04 502.11 C 710.47 500.43 713.38 499.60 715.86 497.97 C 716.97 497.64 717.96 497.11 718.85 496.37 C 719.32 496.30 720.28 496.15 720.75 496.08 C 721.92 494.51 724.18 494.58 725.24 492.88 C 727.39 492.66 729.87 493.33 731.64 491.70 C 732.92 491.42 734.14 490.96 734.84 489.75 C 735.32 489.70 736.28 489.60 736.76 489.54 C 737.61 488.66 738.65 488.11 739.89 487.92 C 740.66 486.92 741.79 486.49 742.98 486.23 C 745.38 484.44 748.42 483.83 750.86 482.11 C 751.90 481.69 752.91 481.18 753.87 480.58 C 755.14 480.34 756.36 479.93 757.00 478.69 C 757.47 478.63 758.42 478.53 758.89 478.47 C 760.77 475.64 764.74 478.08 766.71 475.51 C 767.84 475.46 768.98 475.42 770.14 475.39 C 770.69 473.95 771.99 473.60 773.39 473.59 C 774.27 472.70 775.14 471.79 776.04 470.91 C 778.23 470.00 780.39 468.93 782.85 469.06 C 783.57 467.52 785.19 467.45 786.69 467.27 C 786.67 466.66 786.61 465.45 786.59 464.84 C 789.42 464.07 787.97 460.66 788.44 458.54 C 787.95 458.25 786.99 457.67 786.51 457.38 C 786.55 456.75 786.62 455.48 786.65 454.84 C 785.16 454.71 783.41 454.91 783.08 453.02 C 779.06 453.06 775.03 452.81 771.02 453.14 M 479.11 505.18 C 478.11 506.16 477.09 507.13 476.36 508.33 C 475.41 508.79 474.71 509.50 474.27 510.47 C 471.00 513.47 468.50 517.45 464.44 519.47 C 469.23 520.31 474.10 519.93 478.94 520.00 C 488.68 519.91 498.44 520.20 508.18 519.83 C 507.72 519.00 507.25 518.17 506.78 517.35 C 505.69 515.54 504.81 513.59 503.39 512.01 C 503.44 511.77 503.53 511.27 503.58 511.03 C 502.38 509.81 501.65 508.27 500.76 506.85 C 500.03 505.14 498.91 503.64 498.27 501.91 C 497.33 500.83 496.67 499.59 496.32 498.22 L 495.77 498.46 C 495.45 496.24 493.61 494.64 493.26 492.44 C 492.68 492.43 491.53 492.40 490.95 492.39 C 487.50 497.07 482.95 500.82 479.11 505.18 M 479.39 572.28 C 462.57 590.51 445.80 608.80 429.01 627.07 C 432.89 630.64 436.79 634.21 440.68 637.79 C 456.00 621.11 471.34 604.43 486.67 587.75 C 500.60 605.83 514.51 623.93 528.43 642.01 C 532.61 638.78 536.80 635.57 540.99 632.35 C 525.74 612.53 510.50 592.72 495.25 572.90 C 495.73 557.43 496.18 541.96 496.67 526.49 C 491.38 526.31 486.10 526.17 480.82 526.00 C 480.33 541.42 479.90 556.85 479.39 572.28 M 695.42 534.19 C 694.09 534.23 693.00 534.73 692.15 535.69 C 691.56 535.71 690.37 535.77 689.78 535.79 C 689.57 537.36 689.70 539.28 687.82 539.83 C 688.12 541.91 686.75 545.22 689.59 545.88 C 689.57 546.55 689.52 547.88 689.50 548.54 C 690.17 548.56 691.53 548.60 692.20 548.62 C 692.46 549.00 692.97 549.76 693.22 550.13 C 700.23 550.55 707.27 550.12 714.30 550.34 C 715.20 551.46 716.51 551.92 717.94 551.72 C 732.66 551.70 747.38 551.67 762.11 551.73 C 762.38 552.11 762.93 552.86 763.21 553.24 C 770.26 553.65 777.37 553.31 784.45 553.39 C 785.50 551.84 787.54 551.58 788.91 550.39 C 789.54 550.35 790.81 550.29 791.44 550.26 C 791.43 549.62 791.42 548.36 791.41 547.73 C 793.74 546.38 794.02 541.14 791.39 540.11 C 791.42 539.46 791.48 538.17 791.51 537.53 C 790.83 537.50 789.48 537.46 788.80 537.43 C 788.53 537.06 788.01 536.31 787.75 535.94 C 780.87 535.45 773.94 536.01 767.06 535.70 C 766.60 535.38 765.70 534.72 765.24 534.40 C 749.78 534.27 734.32 534.42 718.86 534.32 C 718.59 533.94 718.06 533.18 717.79 532.80 C 710.70 532.38 703.58 532.80 696.48 532.60 C 696.21 533.00 695.68 533.79 695.42 534.19 M 190.86 539.13 C 190.36 539.17 189.35 539.24 188.85 539.28 C 188.31 539.75 187.22 540.69 186.67 541.16 C 186.67 541.66 186.68 542.66 186.68 543.16 C 184.41 544.68 184.39 549.36 186.69 550.85 C 186.67 551.49 186.62 552.75 186.60 553.39 C 187.25 553.40 188.54 553.44 189.19 553.46 C 189.86 554.41 190.77 554.86 191.92 554.81 C 199.61 555.04 207.34 554.42 215.00 555.12 C 216.34 554.89 217.69 554.79 219.05 554.80 C 242.39 554.85 265.72 554.80 289.06 554.83 C 291.14 554.95 292.75 553.25 294.81 553.15 C 294.81 552.57 294.81 551.40 294.81 550.82 C 295.19 550.60 295.95 550.16 296.33 549.93 C 296.38 547.73 297.66 544.06 294.78 543.21 C 294.80 542.62 294.84 541.44 294.86 540.85 C 293.61 540.01 292.36 539.23 290.89 538.91 C 290.21 537.89 289.28 537.42 288.11 537.49 C 256.73 537.47 225.34 537.49 193.95 537.48 C 192.50 537.25 191.47 537.80 190.86 539.13 M 694.99 583.63 C 693.66 585.42 691.24 585.64 689.55 586.98 C 689.56 587.62 689.59 588.92 689.60 589.56 C 689.14 589.85 688.22 590.41 687.76 590.69 C 688.12 592.79 686.76 596.13 689.61 596.84 C 689.58 597.51 689.52 598.84 689.49 599.50 C 690.17 599.50 691.53 599.48 692.21 599.47 C 693.07 600.52 693.94 601.58 694.79 602.67 C 695.48 602.66 696.84 602.64 697.53 602.63 C 697.52 603.41 697.51 604.96 697.51 605.74 C 698.12 605.75 699.35 605.77 699.96 605.78 C 701.43 607.38 702.96 608.93 704.43 610.55 C 705.36 610.59 706.31 610.63 707.26 610.68 C 707.22 611.42 707.14 612.90 707.10 613.63 C 707.78 613.68 709.12 613.76 709.80 613.81 C 711.01 615.46 712.54 616.85 713.94 618.35 C 714.76 619.09 715.58 619.84 716.43 620.58 C 717.17 621.41 717.92 622.27 718.63 623.16 C 719.71 624.19 720.94 625.09 722.56 624.97 C 722.83 625.98 723.11 627.01 723.40 628.05 C 724.77 628.10 725.92 628.61 726.85 629.59 C 727.35 629.62 728.35 629.70 728.85 629.74 C 732.19 633.67 736.17 636.98 739.59 640.84 C 740.08 640.77 741.05 640.63 741.54 640.56 C 741.85 641.71 742.17 642.87 742.49 644.04 C 743.89 643.98 745.02 644.48 745.88 645.53 C 746.53 645.56 747.84 645.61 748.49 645.64 C 748.48 646.39 748.45 647.90 748.44 648.65 C 749.04 648.71 750.23 648.82 750.82 648.88 C 754.47 651.63 759.45 649.36 762.74 647.03 C 762.71 646.43 762.65 645.23 762.63 644.62 C 763.09 644.36 764.01 643.84 764.47 643.58 C 764.42 641.61 764.41 639.66 764.41 637.70 C 763.97 637.65 763.08 637.55 762.63 637.50 C 762.67 636.76 762.75 635.29 762.79 634.55 C 762.11 634.53 760.74 634.49 760.06 634.47 C 759.20 633.40 758.34 632.37 757.47 631.34 C 756.78 631.35 755.39 631.35 754.70 631.36 C 754.73 630.60 754.78 629.08 754.81 628.33 C 754.15 628.29 752.82 628.23 752.16 628.20 C 750.18 626.17 748.70 622.80 745.31 623.22 C 745.33 622.48 745.35 621.02 745.36 620.28 C 744.73 620.28 743.46 620.28 742.83 620.28 C 741.29 618.43 739.55 616.77 737.81 615.13 C 735.98 613.07 733.87 611.30 732.09 609.21 C 731.58 609.19 730.56 609.16 730.05 609.14 C 729.38 607.80 728.13 607.40 726.74 607.34 C 725.91 606.44 725.09 605.53 724.31 604.62 C 723.42 603.87 722.54 603.11 721.68 602.37 C 720.82 601.16 719.82 600.08 718.61 599.27 C 717.84 598.41 717.10 597.55 716.36 596.71 C 715.17 595.68 714.06 594.57 712.98 593.46 C 710.03 592.99 708.38 590.43 706.51 588.41 C 705.82 588.40 704.42 588.37 703.72 588.36 C 703.77 587.65 703.86 586.23 703.90 585.52 C 702.37 585.43 700.77 585.15 700.09 583.60 C 698.38 583.56 696.68 583.57 694.99 583.63 M 283.13 594.59 C 282.62 594.63 281.62 594.71 281.12 594.75 C 280.12 597.34 276.99 596.08 274.87 596.45 C 274.00 597.39 272.91 597.90 271.60 598.00 C 271.42 598.31 271.05 598.94 270.87 599.25 C 269.45 599.39 268.06 599.75 267.07 600.84 C 265.91 601.14 264.89 601.70 264.03 602.52 C 263.54 602.58 262.55 602.68 262.05 602.74 C 261.45 604.01 260.23 604.42 258.94 604.67 C 257.99 605.28 256.98 605.77 255.91 606.14 C 254.95 607.24 253.58 607.56 252.19 607.70 C 251.90 608.19 251.30 609.18 251.01 609.68 C 250.77 609.39 250.29 608.80 250.05 608.51 C 249.36 610.13 247.64 610.59 246.11 610.91 C 245.41 612.01 244.22 612.37 243.02 612.65 C 241.34 614.37 238.82 613.58 236.70 613.72 C 236.43 614.10 235.87 614.87 235.59 615.25 C 233.16 615.73 230.89 616.92 229.00 618.50 C 228.51 618.54 227.52 618.61 227.02 618.65 C 226.75 619.01 226.21 619.73 225.94 620.10 C 222.33 619.86 219.02 620.97 216.14 623.12 C 214.49 623.78 212.86 624.52 211.21 625.19 C 209.87 626.42 207.93 626.68 206.74 628.11 C 206.26 628.18 205.30 628.31 204.82 628.38 C 203.85 629.36 202.64 629.86 201.21 629.88 C 201.18 630.46 201.13 631.63 201.10 632.22 C 198.05 633.55 199.92 637.56 199.43 640.13 C 200.76 641.01 201.03 642.60 201.58 643.97 C 202.82 644.20 204.09 644.47 204.87 645.57 C 206.56 645.59 208.26 645.59 209.96 645.56 C 211.28 643.32 214.16 644.44 216.27 644.21 C 216.52 643.80 217.02 642.99 217.27 642.59 C 218.74 642.55 220.17 642.27 220.89 640.84 C 221.36 640.78 222.29 640.67 222.76 640.61 C 224.11 639.58 225.70 638.96 227.11 638.04 C 228.79 637.37 230.42 636.57 232.08 635.84 C 233.07 634.76 234.43 634.38 235.84 634.25 C 236.03 633.94 236.41 633.32 236.60 633.00 C 237.91 632.91 238.99 632.39 239.86 631.45 C 241.99 631.08 245.09 632.34 246.11 629.77 C 246.61 629.71 247.60 629.61 248.09 629.55 C 249.50 628.49 251.22 627.93 252.58 626.81 C 254.88 626.21 256.91 624.91 258.93 623.71 C 260.24 623.49 261.47 623.07 262.08 621.79 C 262.57 621.74 263.56 621.65 264.05 621.60 C 265.47 619.46 268.26 620.49 270.38 620.29 C 270.67 619.91 271.26 619.14 271.55 618.75 C 273.93 618.21 276.25 617.16 278.10 615.54 C 278.58 615.49 279.53 615.39 280.01 615.34 C 280.65 614.09 281.88 613.68 283.16 613.43 C 284.11 612.69 285.19 612.27 286.40 612.16 C 286.66 611.77 287.17 610.97 287.42 610.58 C 288.65 610.57 289.88 610.57 291.11 610.58 C 291.84 609.33 293.19 609.19 294.49 609.03 C 294.75 607.50 295.24 606.05 296.53 605.09 C 296.22 603.00 297.58 599.72 294.79 598.98 C 294.80 598.46 294.83 597.42 294.84 596.90 C 294.33 596.37 293.29 595.30 292.78 594.76 C 292.29 594.72 291.31 594.63 290.82 594.58 C 289.00 592.55 284.91 592.49 283.13 594.59 Z" />
</g>
<g id="#000000ff">
<path fill="#000000" opacity="1.00" d=" M 322.57 361.71 C 333.78 359.62 345.84 362.12 355.11 368.81 C 362.67 374.13 368.37 382.12 370.68 391.10 C 373.47 401.40 371.68 412.83 365.92 421.82 C 359.04 432.73 346.77 439.96 333.91 440.84 C 322.14 441.85 309.97 437.73 301.44 429.52 C 292.84 421.55 288.09 409.60 289.12 397.90 C 290.27 380.00 305.10 364.70 322.57 361.71 Z" />
<path fill="#000000" opacity="1.00" d=" M 640.45 361.74 C 651.92 359.59 664.30 362.18 673.68 369.23 C 682.87 375.87 689.05 386.61 689.84 397.96 C 690.63 407.27 687.83 416.80 682.24 424.27 C 674.77 434.36 662.51 440.67 649.96 440.94 C 639.05 441.39 628.00 437.44 619.98 430.00 C 610.29 421.37 605.36 407.74 607.50 394.92 C 609.94 378.28 624.05 364.65 640.45 361.74 Z" />
<path fill="#000000" opacity="1.00" d=" M 183.91 453.03 C 187.02 453.58 191.57 451.55 193.67 454.47 C 194.98 454.60 196.22 454.94 196.86 456.21 C 199.89 456.05 202.49 457.64 204.94 459.21 C 206.22 459.43 207.40 459.91 208.06 461.12 C 208.55 461.18 209.53 461.30 210.02 461.36 C 210.85 462.21 211.86 462.77 213.05 463.02 C 215.42 464.82 218.51 465.31 220.81 467.23 C 222.04 467.40 223.17 467.86 224.01 468.82 C 226.15 469.70 228.46 470.40 230.24 471.96 C 234.64 473.85 239.17 475.77 243.10 478.52 C 244.79 478.56 246.49 478.58 248.19 478.61 C 249.13 481.35 252.38 479.74 254.46 480.61 C 256.03 481.36 257.78 481.92 258.95 483.30 C 259.41 483.37 260.33 483.50 260.80 483.57 C 261.83 484.34 262.97 484.99 264.11 485.61 C 265.09 486.07 266.09 486.48 267.12 486.85 C 269.46 488.76 272.79 489.05 274.89 491.27 C 275.37 491.34 276.34 491.47 276.82 491.54 C 277.69 492.37 278.72 492.91 279.91 493.16 C 280.73 494.09 281.83 494.58 283.03 494.85 C 285.47 496.40 288.07 497.95 291.08 497.82 C 291.86 499.26 293.43 499.46 294.90 499.59 C 294.87 500.19 294.81 501.38 294.78 501.97 C 297.70 502.66 296.14 506.12 296.62 508.25 C 296.17 508.57 295.26 509.21 294.80 509.52 C 294.76 510.14 294.67 511.38 294.63 512.00 C 293.15 511.93 291.97 512.44 291.08 513.52 C 287.45 513.17 283.27 514.65 280.04 512.57 C 278.87 512.02 277.66 511.50 276.73 510.57 C 276.29 510.51 275.42 510.38 274.99 510.32 C 272.33 507.80 268.74 507.07 265.21 507.10 C 264.93 506.82 264.37 506.25 264.09 505.97 C 262.37 505.30 260.70 504.52 259.00 503.82 C 258.15 502.78 256.99 502.32 255.66 502.33 C 255.34 501.98 254.71 501.29 254.39 500.95 C 253.27 500.70 252.23 500.29 251.26 499.71 C 250.08 499.37 248.95 498.92 248.09 498.03 C 246.42 497.29 244.76 496.52 243.07 495.83 C 242.23 494.93 241.13 494.45 239.95 494.20 C 237.56 492.31 234.26 491.97 232.11 489.78 C 231.64 489.72 230.70 489.59 230.22 489.53 C 229.37 488.63 228.32 488.10 227.08 487.94 C 225.69 485.67 222.75 486.78 220.56 486.53 C 220.27 486.17 219.69 485.45 219.39 485.09 C 218.28 484.75 217.22 484.30 216.21 483.74 C 214.93 483.46 213.74 482.98 213.08 481.79 C 212.59 481.74 211.62 481.63 211.14 481.57 C 210.29 480.69 209.25 480.15 208.02 479.95 C 207.22 478.95 206.05 478.56 204.84 478.31 C 203.40 477.43 201.90 476.66 200.46 475.79 C 199.21 475.49 198.00 475.05 197.09 474.11 C 195.42 473.39 193.77 472.62 192.06 471.99 C 191.26 470.98 190.09 470.60 188.90 470.31 C 187.75 468.79 185.75 469.33 184.15 469.08 C 183.42 467.53 181.80 467.45 180.32 467.27 C 180.33 466.70 180.35 465.57 180.36 465.00 C 178.13 463.28 178.36 459.00 180.35 457.16 C 180.36 456.58 180.39 455.42 180.40 454.84 C 181.85 454.71 183.59 454.88 183.91 453.03 Z" />
<path fill="#000000" opacity="1.00" d=" M 771.02 453.14 C 775.03 452.81 779.06 453.06 783.08 453.02 C 783.41 454.91 785.16 454.71 786.65 454.84 C 786.62 455.48 786.55 456.75 786.51 457.38 C 786.99 457.67 787.95 458.25 788.44 458.54 C 787.97 460.66 789.42 464.07 786.59 464.84 C 786.61 465.45 786.67 466.66 786.69 467.27 C 785.19 467.45 783.57 467.52 782.85 469.06 C 780.39 468.93 778.23 470.00 776.04 470.91 C 775.14 471.79 774.27 472.70 773.39 473.59 C 771.99 473.60 770.69 473.95 770.14 475.39 C 768.98 475.42 767.84 475.46 766.71 475.51 C 764.74 478.08 760.77 475.64 758.89 478.47 C 758.42 478.53 757.47 478.63 757.00 478.69 C 756.36 479.93 755.14 480.34 753.87 480.58 C 752.91 481.18 751.90 481.69 750.86 482.11 C 748.42 483.83 745.38 484.44 742.98 486.23 C 741.79 486.49 740.66 486.92 739.89 487.92 C 738.65 488.11 737.61 488.66 736.76 489.54 C 736.28 489.60 735.32 489.70 734.84 489.75 C 734.14 490.96 732.92 491.42 731.64 491.70 C 729.87 493.33 727.39 492.66 725.24 492.88 C 724.18 494.58 721.92 494.51 720.75 496.08 C 720.28 496.15 719.32 496.30 718.85 496.37 C 717.96 497.11 716.97 497.64 715.86 497.97 C 713.38 499.60 710.47 500.43 708.04 502.11 C 706.74 502.38 705.55 502.86 704.86 504.05 C 703.17 504.31 701.04 503.77 700.07 505.57 C 698.37 505.59 696.68 505.59 694.99 505.56 C 694.07 504.45 692.87 503.94 691.38 504.02 C 691.35 503.38 691.30 502.10 691.28 501.46 C 690.82 501.17 689.90 500.59 689.44 500.30 C 690.12 497.73 688.06 493.51 691.24 492.32 C 691.26 491.73 691.29 490.56 691.31 489.97 C 693.26 489.52 695.08 488.65 696.96 487.96 C 697.67 486.76 698.95 486.53 700.24 486.40 C 701.11 485.41 701.97 484.41 702.83 483.40 C 703.36 483.39 704.41 483.37 704.94 483.36 C 705.91 480.59 709.57 482.74 710.89 480.34 C 712.58 480.30 714.28 480.28 715.99 480.23 C 716.60 478.93 717.84 478.52 719.18 478.33 C 720.65 477.41 722.21 476.62 723.71 475.73 C 724.91 475.50 726.03 474.99 726.91 474.10 C 728.59 473.39 730.27 472.63 732.01 472.03 C 732.95 470.06 735.26 470.81 737.00 470.53 C 738.56 470.42 739.86 469.36 741.35 468.94 C 741.65 468.63 742.26 467.99 742.56 467.67 C 743.88 467.60 745.15 467.23 745.98 466.13 C 747.18 465.87 748.21 465.32 749.09 464.48 C 749.58 464.43 750.56 464.32 751.06 464.27 C 751.66 462.99 752.87 462.57 754.19 462.39 C 755.64 461.50 757.15 460.73 758.62 459.85 C 759.87 459.61 761.03 459.11 761.95 458.18 C 763.02 457.81 764.04 457.32 765.01 456.72 C 766.29 456.46 767.57 456.11 768.13 454.75 C 768.65 454.73 769.69 454.67 770.21 454.65 C 770.42 454.27 770.82 453.52 771.02 453.14 Z" />
<path fill="#000000" opacity="1.00" d=" M 479.11 505.18 C 482.95 500.82 487.50 497.07 490.95 492.39 C 491.53 492.40 492.68 492.43 493.26 492.44 C 493.61 494.64 495.45 496.24 495.77 498.46 L 496.32 498.22 C 496.67 499.59 497.33 500.83 498.27 501.91 C 498.91 503.64 500.03 505.14 500.76 506.85 C 501.65 508.27 502.38 509.81 503.58 511.03 C 503.53 511.27 503.44 511.77 503.39 512.01 C 504.81 513.59 505.69 515.54 506.78 517.35 C 507.25 518.17 507.72 519.00 508.18 519.83 C 498.44 520.20 488.68 519.91 478.94 520.00 C 474.10 519.93 469.23 520.31 464.44 519.47 C 468.50 517.45 471.00 513.47 474.27 510.47 C 474.71 509.50 475.41 508.79 476.36 508.33 C 477.09 507.13 478.11 506.16 479.11 505.18 Z" />
<path fill="#000000" opacity="1.00" d=" M 479.39 572.28 C 479.90 556.85 480.33 541.42 480.82 526.00 C 486.10 526.17 491.38 526.31 496.67 526.49 C 496.18 541.96 495.73 557.43 495.25 572.90 C 510.50 592.72 525.74 612.53 540.99 632.35 C 536.80 635.57 532.61 638.78 528.43 642.01 C 514.51 623.93 500.60 605.83 486.67 587.75 C 471.34 604.43 456.00 621.11 440.68 637.79 C 436.79 634.21 432.89 630.64 429.01 627.07 C 445.80 608.80 462.57 590.51 479.39 572.28 Z" />
<path fill="#000000" opacity="1.00" d=" M 695.42 534.19 C 695.68 533.79 696.21 533.00 696.48 532.60 C 703.58 532.80 710.70 532.38 717.79 532.80 C 718.06 533.18 718.59 533.94 718.86 534.32 C 734.32 534.42 749.78 534.27 765.24 534.40 C 765.70 534.72 766.60 535.38 767.06 535.70 C 773.94 536.01 780.87 535.45 787.75 535.94 C 788.01 536.31 788.53 537.06 788.80 537.43 C 789.48 537.46 790.83 537.50 791.51 537.53 C 791.48 538.17 791.42 539.46 791.39 540.11 C 794.02 541.14 793.74 546.38 791.41 547.73 C 791.42 548.36 791.43 549.62 791.44 550.26 C 790.81 550.29 789.54 550.35 788.91 550.39 C 787.54 551.58 785.50 551.84 784.45 553.39 C 777.37 553.31 770.26 553.65 763.21 553.24 C 762.93 552.86 762.38 552.11 762.11 551.73 C 747.38 551.67 732.66 551.70 717.94 551.72 C 716.51 551.92 715.20 551.46 714.30 550.34 C 707.27 550.12 700.23 550.55 693.22 550.13 C 692.97 549.76 692.46 549.00 692.20 548.62 C 691.53 548.60 690.17 548.56 689.50 548.54 C 689.52 547.88 689.57 546.55 689.59 545.88 C 686.75 545.22 688.12 541.91 687.82 539.83 C 689.70 539.28 689.57 537.36 689.78 535.79 C 690.37 535.77 691.56 535.71 692.15 535.69 C 693.00 534.73 694.09 534.23 695.42 534.19 Z" />
<path fill="#000000" opacity="1.00" d=" M 190.86 539.13 C 191.47 537.80 192.50 537.25 193.95 537.48 C 225.34 537.49 256.73 537.47 288.11 537.49 C 289.28 537.42 290.21 537.89 290.89 538.91 C 292.36 539.23 293.61 540.01 294.86 540.85 C 294.84 541.44 294.80 542.62 294.78 543.21 C 297.66 544.06 296.38 547.73 296.33 549.93 C 295.95 550.16 295.19 550.60 294.81 550.82 C 294.81 551.40 294.81 552.57 294.81 553.15 C 292.75 553.25 291.14 554.95 289.06 554.83 C 265.72 554.80 242.39 554.85 219.05 554.80 C 217.69 554.79 216.34 554.89 215.00 555.12 C 207.34 554.42 199.61 555.04 191.92 554.81 C 190.77 554.86 189.86 554.41 189.19 553.46 C 188.54 553.44 187.25 553.40 186.60 553.39 C 186.62 552.75 186.67 551.49 186.69 550.85 C 184.39 549.36 184.41 544.68 186.68 543.16 C 186.68 542.66 186.67 541.66 186.67 541.16 C 187.22 540.69 188.31 539.75 188.85 539.28 C 189.35 539.24 190.36 539.17 190.86 539.13 Z" />
<path fill="#000000" opacity="1.00" d=" M 694.99 583.63 C 696.68 583.57 698.38 583.56 700.09 583.60 C 700.77 585.15 702.37 585.43 703.90 585.52 C 703.86 586.23 703.77 587.65 703.72 588.36 C 704.42 588.37 705.82 588.40 706.51 588.41 C 708.38 590.43 710.03 592.99 712.98 593.46 C 714.06 594.57 715.17 595.68 716.36 596.71 C 717.10 597.55 717.84 598.41 718.61 599.27 C 719.82 600.08 720.82 601.16 721.68 602.37 C 722.54 603.11 723.42 603.87 724.31 604.62 C 725.09 605.53 725.91 606.44 726.74 607.34 C 728.13 607.40 729.38 607.80 730.05 609.14 C 730.56 609.16 731.58 609.19 732.09 609.21 C 733.87 611.30 735.98 613.07 737.81 615.13 C 739.55 616.77 741.29 618.43 742.83 620.28 C 743.46 620.28 744.73 620.28 745.36 620.28 C 745.35 621.02 745.33 622.48 745.31 623.22 C 748.70 622.80 750.18 626.17 752.16 628.20 C 752.82 628.23 754.15 628.29 754.81 628.33 C 754.78 629.08 754.73 630.60 754.70 631.36 C 755.39 631.35 756.78 631.35 757.47 631.34 C 758.34 632.37 759.20 633.40 760.06 634.47 C 760.74 634.49 762.11 634.53 762.79 634.55 C 762.75 635.29 762.67 636.76 762.63 637.50 C 763.08 637.55 763.97 637.65 764.41 637.70 C 764.41 639.66 764.42 641.61 764.47 643.58 C 764.01 643.84 763.09 644.36 762.63 644.62 C 762.65 645.23 762.71 646.43 762.74 647.03 C 759.45 649.36 754.47 651.63 750.82 648.88 C 750.23 648.82 749.04 648.71 748.44 648.65 C 748.45 647.90 748.48 646.39 748.49 645.64 C 747.84 645.61 746.53 645.56 745.88 645.53 C 745.02 644.48 743.89 643.98 742.49 644.04 C 742.17 642.87 741.85 641.71 741.54 640.56 C 741.05 640.63 740.08 640.77 739.59 640.84 C 736.17 636.98 732.19 633.67 728.85 629.74 C 728.35 629.70 727.35 629.62 726.85 629.59 C 725.92 628.61 724.77 628.10 723.40 628.05 C 723.11 627.01 722.83 625.98 722.56 624.97 C 720.94 625.09 719.71 624.19 718.63 623.16 C 717.92 622.27 717.17 621.41 716.43 620.58 C 715.58 619.84 714.76 619.09 713.94 618.35 C 712.54 616.85 711.01 615.46 709.80 613.81 C 709.12 613.76 707.78 613.68 707.10 613.63 C 707.14 612.90 707.22 611.42 707.26 610.68 C 706.31 610.63 705.36 610.59 704.43 610.55 C 702.96 608.93 701.43 607.38 699.96 605.78 C 699.35 605.77 698.12 605.75 697.51 605.74 C 697.51 604.96 697.52 603.41 697.53 602.63 C 696.84 602.64 695.48 602.66 694.79 602.67 C 693.94 601.58 693.07 600.52 692.21 599.47 C 691.53 599.48 690.17 599.50 689.49 599.50 C 689.52 598.84 689.58 597.51 689.61 596.84 C 686.76 596.13 688.12 592.79 687.76 590.69 C 688.22 590.41 689.14 589.85 689.60 589.56 C 689.59 588.92 689.56 587.62 689.55 586.98 C 691.24 585.64 693.66 585.42 694.99 583.63 Z" />
<path fill="#000000" opacity="1.00" d=" M 283.13 594.59 C 284.91 592.49 289.00 592.55 290.82 594.58 C 291.31 594.63 292.29 594.72 292.78 594.76 C 293.29 595.30 294.33 596.37 294.84 596.90 C 294.83 597.42 294.80 598.46 294.79 598.98 C 297.58 599.72 296.22 603.00 296.53 605.09 C 295.24 606.05 294.75 607.50 294.49 609.03 C 293.19 609.19 291.84 609.33 291.11 610.58 C 289.88 610.57 288.65 610.57 287.42 610.58 C 287.17 610.97 286.66 611.77 286.40 612.16 C 285.19 612.27 284.11 612.69 283.16 613.43 C 281.88 613.68 280.65 614.09 280.01 615.34 C 279.53 615.39 278.58 615.49 278.10 615.54 C 276.25 617.16 273.93 618.21 271.55 618.75 C 271.26 619.14 270.67 619.91 270.38 620.29 C 268.26 620.49 265.47 619.46 264.05 621.60 C 263.56 621.65 262.57 621.74 262.08 621.79 C 261.47 623.07 260.24 623.49 258.93 623.71 C 256.91 624.91 254.88 626.21 252.58 626.81 C 251.22 627.93 249.50 628.49 248.09 629.55 C 247.60 629.61 246.61 629.71 246.11 629.77 C 245.09 632.34 241.99 631.08 239.86 631.45 C 238.99 632.39 237.91 632.91 236.60 633.00 C 236.41 633.32 236.03 633.94 235.84 634.25 C 234.43 634.38 233.07 634.76 232.08 635.84 C 230.42 636.57 228.79 637.37 227.11 638.04 C 225.70 638.96 224.11 639.58 222.76 640.61 C 222.29 640.67 221.36 640.78 220.89 640.84 C 220.17 642.27 218.74 642.55 217.27 642.59 C 217.02 642.99 216.52 643.80 216.27 644.21 C 214.16 644.44 211.28 643.32 209.96 645.56 C 208.26 645.59 206.56 645.59 204.87 645.57 C 204.09 644.47 202.82 644.20 201.58 643.97 C 201.03 642.60 200.76 641.01 199.43 640.13 C 199.92 637.56 198.05 633.55 201.10 632.22 C 201.13 631.63 201.18 630.46 201.21 629.88 C 202.64 629.86 203.85 629.36 204.82 628.38 C 205.30 628.31 206.26 628.18 206.74 628.11 C 207.93 626.68 209.87 626.42 211.21 625.19 C 212.86 624.52 214.49 623.78 216.14 623.12 C 219.02 620.97 222.33 619.86 225.94 620.10 C 226.21 619.73 226.75 619.01 227.02 618.65 C 227.52 618.61 228.51 618.54 229.00 618.50 C 230.89 616.92 233.16 615.73 235.59 615.25 C 235.87 614.87 236.43 614.10 236.70 613.72 C 238.82 613.58 241.34 614.37 243.02 612.65 C 244.22 612.37 245.41 612.01 246.11 610.91 C 247.64 610.59 249.36 610.13 250.05 608.51 C 250.29 608.80 250.77 609.39 251.01 609.68 C 251.30 609.18 251.90 608.19 252.19 607.70 C 253.58 607.56 254.95 607.24 255.91 606.14 C 256.98 605.77 257.99 605.28 258.94 604.67 C 260.23 604.42 261.45 604.01 262.05 602.74 C 262.55 602.68 263.54 602.58 264.03 602.52 C 264.89 601.70 265.91 601.14 267.07 600.84 C 268.06 599.75 269.45 599.39 270.87 599.25 C 271.05 598.94 271.42 598.31 271.60 598.00 C 272.91 597.90 274.00 597.39 274.87 596.45 C 276.99 596.08 280.12 597.34 281.12 594.75 C 281.62 594.71 282.62 594.63 283.13 594.59 Z" />
</g>
</svg>
