<?xml version="1.0" encoding="utf-8"?>
<!-- Generator: Adobe Illustrator 16.0.0, SVG Export Plug-In . SVG Version: 6.00 Build 0)  -->
<!DOCTYPE svg PUBLIC "-//W3C//DTD SVG 1.1//EN" "http://www.w3.org/Graphics/SVG/1.1/DTD/svg11.dtd">
<svg version="1.1" id="레이어_1" xmlns="http://www.w3.org/2000/svg" xmlns:xlink="http://www.w3.org/1999/xlink" x="0px"
	 y="0px" width="1000px" height="1000px" viewBox="0 0 1000 1000" enable-background="new 0 0 1000 1000" xml:space="preserve">
<g id="_x23_ffccccff">
	<path fill="#FFCCCC" d="M211.61,102.53c1.03-0.04,2.052-0.08,3.08-0.13c-0.028,0.2-0.09,0.62-0.12,0.82
		c-0.078,0.6-0.25,1.79-0.34,2.39c38.271,40.79,76.09,82.01,114.24,122.92c8.42,9.12,16.63,18.45,25.58,27.07
		c-37.12,19.78-74.57,38.98-111.82,58.55c-10.31,5.68-21.13,10.42-31.13,16.67c-1.108-22.26,0.3-44.54,0.09-66.81
		c-0.22-10.18,0.82-20.43-0.64-30.54c-0.12-22.83,0.15-45.68,0.28-68.52c0.438-1.95,0.47-3.95,0.47-5.93
		C211.31,140.19,211.72,121.36,211.61,102.53z"/>
	<path fill="#FFCCCC" d="M788.288,102.91c0.58-0.01,1.722-0.02,2.29-0.02c-0.869,20.35-0.3,40.72-0.35,61.08
		c0.57,27.01,0.31,54.021,0.45,81.021c-0.03,27.97,0.5,55.95,0.2,83.92c-41.21-21.78-82.65-43.15-123.91-64.83
		c-6.28-3.4-12.83-6.26-18.91-10c17.91-18.44,35.01-37.63,52.63-56.34c25-27.01,50.03-53.98,75.07-80.95
		c1.97-2.1,4.47-3.98,5.358-6.84c0.222-1.56,1.37-2.51,2.62-3.29C785.328,105.5,786.8,104.2,788.288,102.91z"/>
</g>
<g id="_x23_ffffffff">
	<path fill="#FFFFFF" d="M788.288,102.26c1.08,0.09,2.182,0.18,3.28,0.26c-0.21,14.68,0.25,29.36,0.03,44.04l1.09-0.05
		c-0.34,1-1.03,2.98-1.38,3.97l1.09-0.06c-0.07,20.51,0.23,41.03,0.28,61.54c0.25,8.41-0.55,16.82-0.08,25.22
		c0.06-10.78,0.58-21.56,0.87-32.34c-0.33,29.41,0.08,58.82,0.26,88.24c0.4,1.27,0.6,2.57,0.6,3.91
		c0.04,10.95,0.04,21.9,0.172,32.85c-0.03,1.4,1.25,2.32,2.06,3.32c25.45,26.06,46.31,56.89,59.3,91.02
		c13.13,34.182,17.96,71.562,13.54,107.932c-4.688,40.33-20.8,78.92-44.39,111.818c-43.75-11.35-87.51-22.648-131.25-34.028
		c-1.16,3.09-2.312,6.18-3.45,9.278c43.13,11.08,86.17,22.5,129.34,33.38c-1.1,0.57-2.16,1.21-2.85,2.28
		c-36.12,45.61-85.36,79.69-138.682,102.25c-72.198,30.47-152.38,40.5-230.09,31.98c-47.59-5.28-94.479-17.83-137.91-38.102
		c-47.198-22.1-90.72-53.479-123.408-94.34c-0.102-0.29-0.3-0.86-0.4-1.149c12.9-4.601,26.17-8.141,39.22-12.329
		c21.73-6.69,43.472-13.37,65.2-20.052c-0.989-3.18-1.979-6.35-2.96-9.528c-36.22,11.119-72.41,22.278-108.62,33.39
		c-22.54-30.72-38.75-66.37-45.01-104.07c-5.53-32.528-3.7-66.25,5.18-98.02c9.65-34.86,27.66-67.11,50.812-94.78
		c6.03-7.47,12.95-14.15,19.24-21.39c0-20.07,0.318-40.15,0.26-60.22l0.76,0.08c-0.08-11.69-0.04-23.4,0.16-35.09
		c1.46,10.11,0.42,20.36,0.64,30.54c0.21,22.271-1.198,44.55-0.09,66.81c10-6.25,20.82-10.99,31.13-16.67
		c37.25-19.57,74.7-38.77,111.82-58.55c-8.95-8.62-17.16-17.95-25.58-27.07c-38.149-40.91-75.97-82.13-114.24-122.92
		c0.091-0.6,0.262-1.79,0.341-2.39c1.329,0.85,2.649,1.72,4,2.54l-0.149,0.57c1.04,0.45,2.09,0.91,3.149,1.36l-0.181,0.92l1.12-0.14
		l0.1,0.61c1.07,0.69,2.11,1.43,3.142,2.18c1.26,0.83,2.5,1.7,3.76,2.54l-0.03,0.41c0.892,0.47,1.771,0.96,2.65,1.46
		c0.38,0.28,1.16,0.83,1.54,1.1l-0.16,0.96c0.49-0.12,1.47-0.34,1.96-0.45l-0.12,1.32l1.261-0.26l-0.171,0.86
		c0.96,0.49,1.921,0.98,2.87,1.5c0.221,0.23,0.67,0.7,0.892,0.93c2.39,1.79,4.8,3.55,7.3,5.19l-0.062,0.44
		c1.021,0.521,2.051,1.021,3.08,1.53l-0.12,0.95l1.222-0.44l-0.16,1.36c0.49-0.09,1.479-0.25,1.97-0.33l-0.06,0.96
		c0.35,0.33,1.028,0.98,1.38,1.3c0.27-0.01,0.83-0.03,1.108-0.04c0.73,1.14,1.812,1.94,3.052,2.46c0.729,0.62,1.479,1.22,2.238,1.81
		c1.45,0.98,2.86,2.03,4.32,3v0.45c1.021,0.5,2.05,1,3.08,1.5l-0.15,0.44c1.36,0.85,2.7,1.75,4.07,2.6l0.09,0.24
		c0.87,0.61,1.73,1.24,2.59,1.89c1.04,0.57,2.04,1.23,2.94,2.01c1.38,1.04,2.79,2.02,4.24,2.96l0.13,0.36
		c0.35,0.22,1.05,0.66,1.41,0.88c2.3,1.67,4.59,3.35,6.818,5.1c0.932,0.54,1.86,1.07,2.801,1.58l0.04,0.82
		c0.449-0.03,1.359-0.09,1.819-0.12c0.05,0.37,0.16,1.11,0.221,1.479c1.261,0.5,2.419,1.22,3.539,1.99
		c0.931,0.7,1.88,1.39,2.84,2.08c0.972,0.83,1.94,1.67,2.91,2.53c0.392,0,1.17,0,1.57,0c0.04,0.47,0.14,1.4,0.18,1.87
		c0.36-0.01,1.07-0.03,1.42-0.04c1.12,0.89,2.261,1.74,3.472,2.51l-0.08,0.74l1.239-0.38l-0.229,1.04
		c0.609,0.14,1.83,0.43,2.439,0.58c0.21,0.36,0.619,1.07,0.819,1.42c0.84,0.43,1.681,0.87,2.521,1.31
		c0.329,0.28,0.979,0.84,1.31,1.13l0.05,0.3c2.271,1.44,4.46,3.02,6.562,4.7c1.09,0.71,2.18,1.43,3.29,2.11l-0.04,0.78l1.29-0.29
		l-0.19,1.37c0.49-0.12,1.49-0.35,1.98-0.47l-0.131,1.36l1.33-0.32l-0.271,0.93c0.93,0.47,1.86,0.94,2.79,1.43
		c0.33,0.27,1,0.8,1.33,1.07l0.14,0.3c1.07,0.7,2.11,1.44,3.16,2.18c1.229,0.85,2.44,1.74,3.7,2.57l-0.061,0.48
		c1.021,0.49,2.051,0.98,3.079,1.47l-0.14,0.91l1.22-0.29l-0.148,1.27c0.38-0.05,1.14-0.14,1.52-0.18
		c0.55,1.271,1.67,1.99,2.91,2.51c1.74,1.28,3.521,2.52,5.31,3.73c2.28,1.73,4.562,3.46,6.932,5.09c1.398,1.03,2.8,2.09,4.22,3.1
		l0.16,0.28c1.02,0.38,1.859,1,2.54,1.85c1.18,0.41,2.29,0.979,2.979,2.07c1.271,0.45,2.421,1.11,3.021,2.4
		c0.35-0.03,1.06-0.09,1.41-0.12l-0.021,0.83c2.37,1.59,4.75,3.2,6.8,5.19c0.312,0,0.932-0.01,1.24-0.02v1.17l0.67,0.02
		c1.021,0.59,2.102,1.08,3.19,1.55c0.04,0.34,0.13,1.03,0.17,1.38c22.33-4.73,44.83-8.86,67.609-10.67
		c32.859-2.86,66-2.35,98.75,1.55c17.899,2.01,35.569,5.54,53.17,9.31c0.591-0.4,1.779-1.2,2.381-1.6l0.068-0.3
		c0.352-0.23,1.062-0.69,1.41-0.92c0.971-0.7,1.95-1.39,2.94-2.09c1.108-0.83,2.22-1.67,3.358-2.47c1.94-1.48,3.9-2.94,5.892-4.35
		c1.22-0.54,2.318-1.29,2.898-2.55c0.392,0.07,1.15,0.21,1.54,0.28l-0.14-1.34l1.28,0.38l-0.24-0.99c0.59-0.21,1.75-0.64,2.34-0.85
		c0.26-0.28,0.78-0.84,1.04-1.12c1.13-0.84,2.26-1.7,3.4-2.53c1.04-0.71,2.068-1.42,3.14-2.11l0.17-0.34
		c0.34-0.26,1.01-0.79,1.34-1.05c0.761-0.49,1.53-0.98,2.312-1.46c0.35-0.25,1.06-0.771,1.409-1.03l-0.079-0.89
		c0.5,0.08,1.5,0.24,2,0.32l-0.142-1.38l1.23,0.39l-0.15-1.33c0.51,0.07,1.53,0.2,2.04,0.26l-0.16-1.35l1.25,0.31l-0.06-0.73
		c2.479-1.57,4.87-3.3,7.16-5.15c1.26-0.85,2.52-1.71,3.81-2.53l-0.04-0.45c0.891-0.49,1.79-0.97,2.69-1.47
		c0.34-0.26,1-0.79,1.34-1.05l0.149-0.29c3.25-2.13,6.449-4.36,9.521-6.75c0.37-0.21,1.1-0.65,1.47-0.86l-0.05-0.87
		c0.39,0.03,1.17,0.09,1.56,0.12c0.382-0.54,1.15-1.61,1.53-2.15c0.29-0.01,0.88-0.02,1.17-0.03c1.511-1.83,3.61-2.99,5.602-4.22
		l0.18-0.29c2.439-1.64,4.81-3.39,7.17-5.15c1.22-0.85,2.44-1.7,3.68-2.53l0.091-0.36c1.471-0.92,2.881-1.93,4.351-2.87
		c0.96-0.82,1.91-1.65,2.88-2.47l0.47,0.09c1.15-0.99,2.352-1.93,3.551-2.88c0.921-0.49,1.851-0.96,2.801-1.42l-0.062-0.44
		c3.23-2.38,6.82-4.36,9.65-7.25c0.33,0.03,1,0.08,1.33,0.11l-0.07-1.23l1.23,0.14l-0.16-1.32c0.5,0.1,1.5,0.28,2,0.38l-0.061-0.86
		c0.34-0.29,1.021-0.88,1.359-1.17c0.91-0.44,1.83-0.9,2.75-1.36l-0.07-0.44c2.28-1.47,4.48-3.05,6.682-4.64
		c0.29-0.24,0.859-0.71,1.148-0.94c1.03-0.72,2.091-1.42,3.182-2.08l-0.051-0.72l1.13,0.16l-0.061-1.24
		c0.49,0.07,1.46,0.22,1.95,0.3l-0.08-1.3l1.25,0.22l-0.189-1.33c0.5,0.1,1.489,0.3,1.989,0.39l-0.14-1.32l0.85,0.12
		c0.312-0.26,0.92-0.771,1.23-1.03c0.79-0.66,1.59-1.33,2.39-2l0.49,0.14c0.92-0.82,1.87-1.63,2.819-2.43
		c0.311-0.21,0.921-0.63,1.229-0.84c1.05-0.72,2.1-1.41,3.19-2.09l0.06-0.3c1.53-1.03,2.93-2.24,4.32-3.46
		c0.29,0.02,0.858,0.07,1.148,0.09c0.32-1.79,1.91-2.1,3.432-2.36c0.04-0.42,0.108-1.25,0.148-1.67c0.38,0.03,1.142,0.1,1.521,0.13
		c0.96-0.85,1.96-1.69,2.938-2.54c0.33-0.17,0.99-0.5,1.312-0.67c1.31-1.1,2.59-2.22,3.88-3.36l0.859,0.89
		c-0.891,2.86-3.391,4.74-5.359,6.84c-25.04,26.97-50.07,53.94-75.07,80.95c-17.62,18.71-34.72,37.9-52.63,56.34
		c6.08,3.74,12.63,6.6,18.91,10c41.26,21.68,82.7,43.05,123.91,64.83c0.3-27.97-0.23-55.95-0.2-83.92
		c-0.141-27,0.12-54.01-0.45-81.021c0.05-20.36-0.52-40.729,0.351-61.08c-0.569,0-1.711,0.01-2.29,0.02v-0.648 M322.658,361.7
		c-15.229,2.66-28.618,14.44-32.43,29.54c-3.46,12.87,0.41,27.31,9.73,36.81c8.42,8.96,20.97,13.71,33.22,12.84
		c11.89-0.608,23.35-6.608,30.62-16.04c5.87-7.55,8.85-17.32,8.04-26.858c-0.78-11.36-6.95-22.1-16.15-28.75
		C346.368,362.25,334.078,359.59,322.658,361.7 M640.56,361.72c-15.43,2.74-28.98,14.86-32.47,30.28
		c-3.29,13.15,1.119,27.75,10.898,37.08c7.9,7.79,19.021,12.14,30.11,11.88c12.62-0.01,25.05-6.14,32.74-16.15
		c5.869-7.568,8.829-17.37,7.988-26.918c-0.8-11.31-6.96-22-16.108-28.63C664.368,362.21,652.02,359.6,640.56,361.72 M164.49,482.02
		c-1.15,3.11-2.32,6.222-3.49,9.33c42.17,15.602,84.318,31.29,126.51,46.852c1.15-3.11,2.32-6.21,3.49-9.312
		C248.83,513.26,206.68,497.6,164.49,482.02 M690.03,527.55c1.3,3.07,2.642,6.13,4.13,9.12c48.592-15.26,97.222-30.38,145.83-45.57
		c-1.35-3.04-2.68-6.08-4.05-9.1C787.3,497.18,738.68,512.41,690.03,527.55 M477.78,506.59c-4.25,4.41-8.08,9.312-13,13.021
		c5.69,0.698,11.432,0.278,17.15,0.39c8.75-0.1,17.52,0.21,26.27-0.18c-1.49-2.57-2.97-5.142-4.43-7.722
		c-1.84-3.39-3.74-6.75-5.61-10.118c-1.76-3.142-3.568-6.262-5.068-9.53c-0.512-0.021-1.54-0.05-2.052-0.07
		C487,497.47,482.09,501.75,477.78,506.59 M479.32,571.96c-1.08,1.93-2.88,3.37-4.3,5.05c-15.34,16.682-30.68,33.36-46.01,50.062
		c3.858,3.568,7.77,7.09,11.608,10.698c15.4-16.6,30.69-33.31,46-50.01c14,18.021,27.882,36.142,41.762,54.24
		c4.229-3.16,8.38-6.44,12.59-9.61c-15.181-19.87-30.48-39.648-45.71-59.479c0.46-15.47,0.92-30.95,1.41-46.42
		c-5.29-0.182-10.57-0.32-15.852-0.5C480.27,541.31,480.038,556.65,479.32,571.96 M691.99,568.97c0,3.24,0.05,6.48,0.102,9.73
		c48.63-0.37,97.27-0.7,145.898-0.97c0.011-3.25-0.05-6.5-0.06-9.74C789.28,568.35,740.64,568.64,691.99,568.97 M162.77,570.46
		c0,3.33-0.01,6.66-0.06,10c42.17,0.24,84.34,0.7,126.51,0.94c0.01-3.312,0.01-6.61,0.09-9.91
		C247.13,571.07,204.95,570.82,162.77,570.46z"/>
	<rect x="437.5" y="466.5" fill="#FFFFFF" width="103.47" height="71.7"/>
</g>
<g id="_x23_000000ff">
	<path d="M322.658,361.7c11.42-2.11,23.71,0.55,33.03,7.54c9.2,6.65,15.37,17.39,16.15,28.75c0.81,9.54-2.17,19.31-8.04,26.858
		c-7.271,9.432-18.73,15.432-30.62,16.04c-12.25,0.87-24.8-3.88-33.22-12.84c-9.32-9.5-13.19-23.94-9.73-36.81
		C294.04,376.14,307.43,364.36,322.658,361.7z"/>
	<path d="M640.56,361.72c11.46-2.12,23.81,0.49,33.16,7.54c9.148,6.63,15.31,17.32,16.108,28.63
		c0.842,9.55-2.119,19.35-7.988,26.918c-7.69,10.012-20.12,16.142-32.74,16.15c-11.09,0.26-22.21-4.09-30.11-11.88
		c-9.778-9.33-14.188-23.93-10.898-37.08C611.578,376.58,625.13,364.46,640.56,361.72z"/>
	<path d="M164.49,482.02c42.188,15.58,84.34,31.24,126.51,46.87c-1.17,3.102-2.34,6.2-3.49,9.312
		C245.32,522.64,203.17,506.95,161,491.35C162.17,488.24,163.34,485.13,164.49,482.02z"/>
	<path d="M690.03,527.55c48.65-15.14,97.271-30.37,145.91-45.55c1.37,3.02,2.7,6.06,4.05,9.1
		c-48.608,15.19-97.238,30.312-145.83,45.57C692.67,533.68,691.328,530.62,690.03,527.55z"/>
	<path stroke="#000000" stroke-width="0.25" stroke-miterlimit="10" d="M479.572,571.96c0.688-15.31,0.907-30.65,1.432-45.97
		c5.048,0.18,10.094,0.318,15.149,0.5c-0.468,15.47-0.907,30.95-1.347,46.42c14.555,19.83,29.177,39.608,43.685,59.479
		c-4.023,3.17-7.99,6.45-12.032,9.61c-13.266-18.1-26.531-36.22-39.912-54.24c-14.631,16.7-29.243,33.41-43.961,50.01
		c-3.67-3.608-7.408-7.13-11.095-10.698c14.652-16.7,29.312-33.38,43.971-50.062C476.818,575.33,478.539,573.89,479.572,571.96z"/>
	<path d="M691.99,568.97c48.65-0.33,97.29-0.62,145.94-0.979c0.01,3.239,0.07,6.489,0.06,9.739
		c-48.63,0.271-97.27,0.601-145.898,0.971C692.038,575.45,691.99,572.21,691.99,568.97z"/>
	<path d="M162.77,570.46c42.182,0.36,84.36,0.61,126.54,1.03c-0.08,3.3-0.08,6.6-0.09,9.91c-42.17-0.24-84.34-0.7-126.51-0.94
		C162.76,577.12,162.77,573.79,162.77,570.46z"/>
	<path d="M693.76,609.9c43.74,11.38,87.5,22.68,131.25,34.028c4.88,1.262,9.75,2.53,14.63,3.78c-1.09,3.061-2.2,6.12-3.271,9.2
		c-5.618-1.26-11.198-2.73-16.72-4.352c-43.17-10.88-86.21-22.3-129.34-33.38C691.448,616.08,692.6,612.99,693.76,609.9z"/>
	<path d="M179.15,646.96c36.21-11.11,72.4-22.27,108.62-33.39c0.98,3.18,1.97,6.35,2.96,9.528
		c-21.729,6.682-43.47,13.36-65.2,20.052c-13.05,4.188-26.318,7.729-39.22,12.33c0.102,0.289,0.3,0.858,0.4,1.148
		c-0.76-0.3-1.51-0.609-2.25-0.91c-6.721,2.17-13.48,4.2-20.24,6.262c-0.97-3.172-1.95-6.33-2.96-9.48
		C167.21,650.61,173.19,648.81,179.15,646.96z"/>
	<polyline points="468.259,510.11 510.211,510.11 489.235,540.589 	"/>
</g>
</svg>
