<?xml version="1.0" encoding="UTF-8" ?>
<!DOCTYPE svg PUBLIC "-//W3C//DTD SVG 1.1//EN" "http://www.w3.org/Graphics/SVG/1.1/DTD/svg11.dtd">
<svg width="1000pt" height="1000pt" viewBox="0 0 1000 1000" version="1.1" xmlns="http://www.w3.org/2000/svg">
<g id="#ffccccff">
<path fill="#ffcccc" opacity="1.00" d=" M 211.61 102.53 C 212.64 102.49 213.66 102.45 214.69 102.40 C 214.66 102.60 214.60 103.02 214.57 103.22 C 214.49 103.82 214.32 105.01 214.23 105.61 C 252.50 146.40 290.32 187.62 328.47 228.53 C 336.89 237.65 345.10 246.98 354.05 255.60 C 316.93 275.38 279.48 294.58 242.23 314.15 C 231.92 319.83 221.10 324.57 211.10 330.82 C 209.99 308.56 211.40 286.28 211.19 264.01 C 210.97 253.83 212.01 243.58 210.55 233.47 C 210.43 210.64 210.70 187.79 210.83 164.95 C 211.27 163.00 211.30 161.00 211.30 159.02 C 211.31 140.19 211.72 121.36 211.61 102.53 Z" />
<path fill="#ffcccc" opacity="1.00" d=" M 788.29 102.91 C 788.87 102.90 790.01 102.89 790.58 102.89 C 789.71 123.24 790.28 143.61 790.23 163.97 C 790.80 190.98 790.54 217.99 790.68 244.99 C 790.65 272.96 791.18 300.94 790.88 328.91 C 749.67 307.13 708.23 285.76 666.97 264.08 C 660.69 260.68 654.14 257.82 648.06 254.08 C 665.97 235.64 683.07 216.45 700.69 197.74 C 725.69 170.73 750.72 143.76 775.76 116.79 C 777.73 114.69 780.23 112.81 781.12 109.95 C 781.34 108.39 782.49 107.44 783.74 106.66 C 785.33 105.50 786.80 104.20 788.29 102.91 Z" />
</g>
<g id="#ffffffff">
<path fill="#ffffff" opacity="1.00" d=" M 788.29 102.26 C 789.37 102.35 790.47 102.44 791.57 102.52 C 791.36 117.20 791.82 131.88 791.60 146.56 L 792.69 146.51 C 792.35 147.51 791.66 149.49 791.31 150.48 L 792.40 150.42 C 792.33 170.93 792.63 191.45 792.68 211.96 C 792.93 220.37 792.13 228.78 792.60 237.18 C 792.66 226.40 793.18 215.62 793.47 204.84 C 793.14 234.25 793.55 263.66 793.73 293.08 C 794.13 294.35 794.33 295.65 794.33 296.99 C 794.37 307.94 794.37 318.89 794.50 329.84 C 794.47 331.24 795.75 332.16 796.56 333.16 C 822.01 359.22 842.87 390.05 855.86 424.18 C 868.99 458.36 873.82 495.74 869.40 532.11 C 864.71 572.44 848.60 611.03 825.01 643.93 C 781.26 632.58 737.50 621.28 693.76 609.90 C 692.60 612.99 691.45 616.08 690.31 619.18 C 733.44 630.26 776.48 641.68 819.65 652.56 C 818.55 653.13 817.49 653.77 816.80 654.84 C 780.68 700.45 731.44 734.53 678.12 757.09 C 605.92 787.56 525.74 797.59 448.03 789.07 C 400.44 783.79 353.55 771.24 310.12 750.97 C 262.92 728.87 219.40 697.49 186.71 656.63 C 186.61 656.34 186.41 655.77 186.31 655.48 C 199.21 650.88 212.48 647.34 225.53 643.15 C 247.26 636.46 269.00 629.78 290.73 623.10 C 289.74 619.92 288.75 616.75 287.77 613.57 C 251.55 624.69 215.36 635.85 179.15 646.96 C 156.61 616.24 140.40 580.59 134.14 542.89 C 128.61 510.36 130.44 476.64 139.32 444.87 C 148.97 410.01 166.98 377.76 190.13 350.09 C 196.16 342.62 203.08 335.94 209.37 328.70 C 209.37 308.63 209.69 288.55 209.63 268.48 L 210.39 268.56 C 210.31 256.87 210.35 245.16 210.55 233.47 C 212.01 243.58 210.97 253.83 211.19 264.01 C 211.40 286.28 209.99 308.56 211.10 330.82 C 221.10 324.57 231.92 319.83 242.23 314.15 C 279.48 294.58 316.93 275.38 354.05 255.60 C 345.10 246.98 336.89 237.65 328.47 228.53 C 290.32 187.62 252.50 146.40 214.23 105.61 C 214.32 105.01 214.49 103.82 214.57 103.22 C 215.90 104.07 217.22 104.94 218.57 105.76 L 218.42 106.33 C 219.46 106.78 220.51 107.24 221.57 107.69 L 221.39 108.61 L 222.51 108.47 L 222.61 109.08 C 223.68 109.77 224.72 110.51 225.75 111.26 C 227.01 112.09 228.25 112.96 229.51 113.80 L 229.48 114.21 C 230.37 114.68 231.25 115.17 232.13 115.67 C 232.51 115.95 233.29 116.50 233.67 116.77 L 233.51 117.73 C 234.00 117.61 234.98 117.39 235.47 117.28 L 235.35 118.60 L 236.61 118.34 L 236.44 119.20 C 237.40 119.69 238.36 120.18 239.31 120.70 C 239.53 120.93 239.98 121.40 240.20 121.63 C 242.59 123.42 245.00 125.18 247.50 126.82 L 247.44 127.26 C 248.46 127.78 249.49 128.28 250.52 128.79 L 250.40 129.74 L 251.62 129.30 L 251.46 130.66 C 251.95 130.57 252.94 130.41 253.43 130.33 L 253.37 131.29 C 253.72 131.62 254.40 132.27 254.75 132.59 C 255.02 132.58 255.58 132.56 255.86 132.55 C 256.59 133.69 257.67 134.49 258.91 135.01 C 259.64 135.63 260.39 136.23 261.15 136.82 C 262.60 137.80 264.01 138.85 265.47 139.82 L 265.47 140.27 C 266.49 140.77 267.52 141.27 268.55 141.77 L 268.40 142.21 C 269.76 143.06 271.10 143.96 272.47 144.81 L 272.56 145.05 C 273.43 145.66 274.29 146.29 275.15 146.94 C 276.19 147.51 277.19 148.17 278.09 148.95 C 279.47 149.99 280.88 150.97 282.33 151.91 L 282.46 152.27 C 282.81 152.49 283.51 152.93 283.87 153.15 C 286.17 154.82 288.46 156.50 290.69 158.25 C 291.62 158.79 292.55 159.32 293.49 159.83 L 293.53 160.65 C 293.98 160.62 294.89 160.56 295.35 160.53 C 295.40 160.90 295.51 161.64 295.57 162.01 C 296.83 162.51 297.99 163.23 299.11 164.00 C 300.04 164.70 300.99 165.39 301.95 166.08 C 302.92 166.91 303.89 167.75 304.86 168.61 C 305.25 168.61 306.03 168.61 306.43 168.61 C 306.47 169.08 306.57 170.01 306.61 170.48 C 306.97 170.47 307.68 170.45 308.03 170.44 C 309.15 171.33 310.29 172.18 311.50 172.95 L 311.42 173.69 L 312.66 173.31 L 312.43 174.35 C 313.04 174.49 314.26 174.78 314.87 174.93 C 315.08 175.29 315.49 176.00 315.69 176.35 C 316.53 176.78 317.37 177.22 318.21 177.66 C 318.54 177.94 319.19 178.50 319.52 178.79 L 319.57 179.09 C 321.84 180.53 324.03 182.11 326.13 183.79 C 327.22 184.50 328.31 185.22 329.42 185.90 L 329.38 186.68 L 330.67 186.39 L 330.48 187.76 C 330.97 187.64 331.97 187.41 332.46 187.29 L 332.33 188.65 L 333.66 188.33 L 333.39 189.26 C 334.32 189.73 335.25 190.20 336.18 190.69 C 336.51 190.96 337.18 191.49 337.51 191.76 L 337.65 192.06 C 338.72 192.76 339.76 193.50 340.81 194.24 C 342.04 195.09 343.25 195.98 344.51 196.81 L 344.45 197.29 C 345.47 197.78 346.50 198.27 347.53 198.76 L 347.39 199.67 L 348.61 199.38 L 348.46 200.65 C 348.84 200.60 349.60 200.51 349.98 200.47 C 350.53 201.74 351.65 202.46 352.89 202.98 C 354.63 204.26 356.41 205.50 358.20 206.71 C 360.48 208.44 362.76 210.17 365.13 211.80 C 366.53 212.83 367.93 213.89 369.35 214.90 L 369.51 215.18 C 370.53 215.56 371.37 216.18 372.05 217.03 C 373.23 217.44 374.34 218.01 375.03 219.10 C 376.30 219.55 377.45 220.21 378.05 221.50 C 378.40 221.47 379.11 221.41 379.46 221.38 L 379.44 222.21 C 381.81 223.80 384.19 225.41 386.24 227.40 C 386.55 227.40 387.17 227.39 387.48 227.38 L 387.48 228.55 L 388.15 228.57 C 389.17 229.16 390.25 229.65 391.34 230.12 C 391.38 230.46 391.47 231.15 391.51 231.50 C 413.84 226.77 436.34 222.64 459.12 220.83 C 491.98 217.97 525.12 218.48 557.87 222.38 C 575.77 224.39 593.44 227.92 611.04 231.69 C 611.63 231.29 612.82 230.49 613.42 230.09 L 613.49 229.79 C 613.84 229.56 614.55 229.10 614.90 228.87 C 615.87 228.17 616.85 227.48 617.84 226.78 C 618.95 225.95 620.06 225.11 621.20 224.31 C 623.14 222.83 625.10 221.37 627.09 219.96 C 628.31 219.42 629.41 218.67 629.99 217.41 C 630.38 217.48 631.14 217.62 631.53 217.69 L 631.39 216.35 L 632.67 216.73 L 632.43 215.74 C 633.02 215.53 634.18 215.10 634.77 214.89 C 635.03 214.61 635.55 214.05 635.81 213.77 C 636.94 212.93 638.07 212.07 639.21 211.24 C 640.25 210.53 641.28 209.82 642.35 209.13 L 642.52 208.79 C 642.86 208.53 643.53 208.00 643.86 207.74 C 644.62 207.25 645.39 206.76 646.17 206.28 C 646.52 206.03 647.23 205.51 647.58 205.25 L 647.50 204.36 C 648.00 204.44 649.00 204.60 649.50 204.68 L 649.36 203.30 L 650.59 203.69 L 650.44 202.36 C 650.95 202.43 651.97 202.56 652.48 202.62 L 652.32 201.27 L 653.57 201.58 L 653.51 200.85 C 655.99 199.28 658.38 197.55 660.67 195.70 C 661.93 194.85 663.19 193.99 664.48 193.17 L 664.44 192.72 C 665.33 192.23 666.23 191.75 667.13 191.25 C 667.47 190.99 668.13 190.46 668.47 190.20 L 668.62 189.91 C 671.87 187.78 675.07 185.55 678.14 183.16 C 678.51 182.95 679.24 182.51 679.61 182.30 L 679.56 181.43 C 679.95 181.46 680.73 181.52 681.12 181.55 C 681.50 181.01 682.27 179.94 682.65 179.40 C 682.94 179.39 683.53 179.38 683.82 179.37 C 685.33 177.54 687.43 176.38 689.42 175.15 L 689.60 174.86 C 692.04 173.22 694.41 171.47 696.77 169.71 C 697.99 168.86 699.21 168.01 700.45 167.18 L 700.54 166.82 C 702.01 165.90 703.42 164.89 704.89 163.95 C 705.85 163.13 706.80 162.30 707.77 161.48 L 708.24 161.57 C 709.39 160.58 710.59 159.64 711.79 158.69 C 712.71 158.20 713.64 157.73 714.59 157.27 L 714.53 156.83 C 717.76 154.45 721.35 152.47 724.18 149.58 C 724.51 149.61 725.18 149.66 725.51 149.69 L 725.44 148.46 L 726.67 148.60 L 726.51 147.28 C 727.01 147.38 728.01 147.56 728.51 147.66 L 728.45 146.80 C 728.79 146.51 729.47 145.92 729.81 145.63 C 730.72 145.19 731.64 144.73 732.56 144.27 L 732.49 143.83 C 734.77 142.36 736.97 140.78 739.17 139.19 C 739.46 138.95 740.03 138.48 740.32 138.25 C 741.35 137.53 742.41 136.83 743.50 136.17 L 743.45 135.45 L 744.58 135.61 L 744.52 134.37 C 745.01 134.44 745.98 134.59 746.47 134.67 L 746.39 133.37 L 747.64 133.59 L 747.45 132.26 C 747.95 132.36 748.94 132.56 749.44 132.65 L 749.30 131.33 L 750.15 131.45 C 750.46 131.19 751.07 130.68 751.38 130.42 C 752.17 129.76 752.97 129.09 753.77 128.42 L 754.26 128.56 C 755.18 127.74 756.13 126.93 757.08 126.13 C 757.39 125.92 758.00 125.50 758.31 125.29 C 759.36 124.57 760.41 123.88 761.50 123.20 L 761.56 122.90 C 763.09 121.87 764.49 120.66 765.88 119.44 C 766.17 119.46 766.74 119.51 767.03 119.53 C 767.35 117.74 768.94 117.43 770.46 117.17 C 770.50 116.75 770.57 115.92 770.61 115.50 C 770.99 115.53 771.75 115.60 772.13 115.63 C 773.09 114.78 774.09 113.94 775.07 113.09 C 775.40 112.92 776.06 112.59 776.38 112.42 C 777.69 111.32 778.97 110.20 780.26 109.06 L 781.12 109.95 C 780.23 112.81 777.73 114.69 775.76 116.79 C 750.72 143.76 725.69 170.73 700.69 197.74 C 683.07 216.45 665.97 235.64 648.06 254.08 C 654.14 257.82 660.69 260.68 666.97 264.08 C 708.23 285.76 749.67 307.13 790.88 328.91 C 791.18 300.94 790.65 272.96 790.68 244.99 C 790.54 217.99 790.80 190.98 790.23 163.97 C 790.28 143.61 789.71 123.24 790.58 102.89 C 790.01 102.89 788.87 102.90 788.29 102.91 L 788.29 102.26 M 322.66 361.70 C 307.43 364.36 294.04 376.14 290.23 391.24 C 286.77 404.11 290.64 418.55 299.96 428.05 C 308.38 437.01 320.93 441.76 333.18 440.89 C 345.07 440.28 356.53 434.28 363.80 424.85 C 369.67 417.30 372.65 407.53 371.84 397.99 C 371.06 386.63 364.89 375.89 355.69 369.24 C 346.37 362.25 334.08 359.59 322.66 361.70 M 640.56 361.72 C 625.13 364.46 611.58 376.58 608.09 392.00 C 604.80 405.15 609.21 419.75 618.99 429.08 C 626.89 436.87 638.01 441.22 649.10 440.96 C 661.72 440.95 674.15 434.82 681.84 424.81 C 687.71 417.24 690.67 407.44 689.83 397.89 C 689.03 386.58 682.87 375.89 673.72 369.26 C 664.37 362.21 652.02 359.60 640.56 361.72 M 164.49 482.02 C 163.34 485.13 162.17 488.24 161.00 491.35 C 203.17 506.95 245.32 522.64 287.51 538.20 C 288.66 535.09 289.83 531.99 291.00 528.89 C 248.83 513.26 206.68 497.60 164.49 482.02 M 690.03 527.55 C 691.33 530.62 692.67 533.68 694.16 536.67 C 742.75 521.41 791.38 506.29 839.99 491.10 C 838.64 488.06 837.31 485.02 835.94 482.00 C 787.30 497.18 738.68 512.41 690.03 527.55 M 477.78 506.59 C 473.53 511.00 469.70 515.90 464.78 519.61 C 470.47 520.31 476.21 519.89 481.93 520.00 C 490.68 519.90 499.45 520.21 508.20 519.82 C 506.71 517.25 505.23 514.68 503.77 512.10 C 501.93 508.71 500.03 505.35 498.16 501.98 C 496.40 498.84 494.59 495.72 493.09 492.45 C 492.58 492.43 491.55 492.40 491.04 492.38 C 487.00 497.47 482.09 501.75 477.78 506.59 M 479.32 571.96 C 478.24 573.89 476.44 575.33 475.02 577.01 C 459.68 593.69 444.34 610.37 429.01 627.07 C 432.87 630.64 436.78 634.16 440.62 637.77 C 456.02 621.17 471.31 604.46 486.62 587.76 C 500.62 605.78 514.50 623.90 528.38 642.00 C 532.61 638.84 536.76 635.56 540.97 632.39 C 525.79 612.52 510.49 592.74 495.26 572.91 C 495.72 557.44 496.18 541.96 496.67 526.49 C 491.38 526.31 486.10 526.17 480.82 525.99 C 480.27 541.31 480.04 556.65 479.32 571.96 M 691.99 568.97 C 691.99 572.21 692.04 575.45 692.09 578.70 C 740.72 578.33 789.36 578.00 837.99 577.73 C 838.00 574.48 837.94 571.23 837.93 567.99 C 789.28 568.35 740.64 568.64 691.99 568.97 M 162.77 570.46 C 162.77 573.79 162.76 577.12 162.71 580.46 C 204.88 580.70 247.05 581.16 289.22 581.40 C 289.23 578.09 289.23 574.79 289.31 571.49 C 247.13 571.07 204.95 570.82 162.77 570.46 Z" />
</g>
<g id="#000000ff">
<path fill="#000000" opacity="1.00" d=" M 322.66 361.70 C 334.08 359.59 346.37 362.25 355.69 369.24 C 364.89 375.89 371.06 386.63 371.84 397.99 C 372.65 407.53 369.67 417.30 363.80 424.85 C 356.53 434.28 345.07 440.28 333.18 440.89 C 320.93 441.76 308.38 437.01 299.96 428.05 C 290.64 418.55 286.77 404.11 290.23 391.24 C 294.04 376.14 307.43 364.36 322.66 361.70 Z" />
<path fill="#000000" opacity="1.00" d=" M 640.56 361.72 C 652.02 359.60 664.37 362.21 673.72 369.26 C 682.87 375.89 689.03 386.58 689.83 397.89 C 690.67 407.44 687.71 417.24 681.84 424.81 C 674.15 434.82 661.72 440.95 649.10 440.96 C 638.01 441.22 626.89 436.87 618.99 429.08 C 609.21 419.75 604.80 405.15 608.09 392.00 C 611.58 376.58 625.13 364.46 640.56 361.72 Z" />
<path fill="#000000" opacity="1.00" d=" M 164.49 482.02 C 206.68 497.60 248.83 513.26 291.00 528.89 C 289.83 531.99 288.66 535.09 287.51 538.20 C 245.32 522.64 203.17 506.95 161.00 491.35 C 162.17 488.24 163.34 485.13 164.49 482.02 Z" />
<path fill="#000000" opacity="1.00" d=" M 690.03 527.55 C 738.68 512.41 787.30 497.18 835.94 482.00 C 837.31 485.02 838.64 488.06 839.99 491.10 C 791.38 506.29 742.75 521.41 694.16 536.67 C 692.67 533.68 691.33 530.62 690.03 527.55 Z" />
<path fill="#000000" opacity="1.00" d=" M 477.78 506.59 C 482.09 501.75 487.00 497.47 491.04 492.38 C 491.55 492.40 492.58 492.43 493.09 492.45 C 494.59 495.72 496.40 498.84 498.16 501.98 C 500.03 505.35 501.93 508.71 503.77 512.10 C 505.23 514.68 506.71 517.25 508.20 519.82 C 499.45 520.21 490.68 519.90 481.93 520.00 C 476.21 519.89 470.47 520.31 464.78 519.61 C 469.70 515.90 473.53 511.00 477.78 506.59 Z" />
<path fill="#000000" opacity="1.00" d=" M 479.32 571.96 C 480.04 556.65 480.27 541.31 480.82 525.99 C 486.10 526.17 491.38 526.31 496.67 526.49 C 496.18 541.96 495.72 557.44 495.26 572.91 C 510.49 592.74 525.79 612.52 540.97 632.39 C 536.76 635.56 532.61 638.84 528.38 642.00 C 514.50 623.90 500.62 605.78 486.62 587.76 C 471.31 604.46 456.02 621.17 440.62 637.77 C 436.78 634.16 432.87 630.64 429.01 627.07 C 444.34 610.37 459.68 593.69 475.02 577.01 C 476.44 575.33 478.24 573.89 479.32 571.96 Z" />
<path fill="#000000" opacity="1.00" d=" M 691.99 568.97 C 740.64 568.64 789.28 568.35 837.93 567.99 C 837.94 571.23 838.00 574.48 837.99 577.73 C 789.36 578.00 740.72 578.33 692.09 578.70 C 692.04 575.45 691.99 572.21 691.99 568.97 Z" />
<path fill="#000000" opacity="1.00" d=" M 162.77 570.46 C 204.95 570.82 247.13 571.07 289.31 571.49 C 289.23 574.79 289.23 578.09 289.22 581.40 C 247.05 581.16 204.88 580.70 162.71 580.46 C 162.76 577.12 162.77 573.79 162.77 570.46 Z" />
<path fill="#000000" opacity="1.00" d=" M 693.76 609.90 C 737.50 621.28 781.26 632.58 825.01 643.93 C 829.89 645.19 834.76 646.46 839.64 647.71 C 838.55 650.77 837.44 653.83 836.37 656.91 C 830.75 655.65 825.17 654.18 819.65 652.56 C 776.48 641.68 733.44 630.26 690.31 619.18 C 691.45 616.08 692.60 612.99 693.76 609.90 Z" />
<path fill="#000000" opacity="1.00" d=" M 179.15 646.96 C 215.36 635.85 251.55 624.69 287.77 613.57 C 288.75 616.75 289.74 619.92 290.73 623.10 C 269.00 629.78 247.26 636.46 225.53 643.15 C 212.48 647.34 199.21 650.88 186.31 655.48 C 186.41 655.77 186.61 656.34 186.71 656.63 C 185.95 656.33 185.20 656.02 184.46 655.72 C 177.74 657.89 170.98 659.92 164.22 661.98 C 163.25 658.81 162.27 655.65 161.26 652.50 C 167.21 650.61 173.19 648.81 179.15 646.96 Z" />
</g>
</svg>
