<?xml version="1.0" encoding="UTF-8" standalone="no"?>
<!-- Created with Inkscape (http://www.inkscape.org/) -->

<svg
   xmlns:dc="http://purl.org/dc/elements/1.1/"
   xmlns:cc="http://creativecommons.org/ns#"
   xmlns:rdf="http://www.w3.org/1999/02/22-rdf-syntax-ns#"
   xmlns:svg="http://www.w3.org/2000/svg"
   xmlns="http://www.w3.org/2000/svg"
   xmlns:sodipodi="http://sodipodi.sourceforge.net/DTD/sodipodi-0.dtd"
   xmlns:inkscape="http://www.inkscape.org/namespaces/inkscape"
   width="210mm"
   height="297mm"
   viewBox="0 0 744.09448819 1052.3622047"
   id="svg2"
   version="1.1"
   inkscape:version="0.91 r13725"
   sodipodi:docname="drawing.svg">
  <defs
     id="defs4">
    <filter
       style="color-interpolation-filters:sRGB;"
       inkscape:label="Drop Shadow"
       id="filter3998">
      <feFlood
         flood-opacity="0.498039"
         flood-color="rgb(0,0,0)"
         result="flood"
         id="feFlood4000" />
      <feComposite
         in="flood"
         in2="SourceGraphic"
         operator="in"
         result="composite1"
         id="feComposite4002" />
      <feGaussianBlur
         in="composite1"
         stdDeviation="18.8"
         result="blur"
         id="feGaussianBlur4004" />
      <feOffset
         dx="0"
         dy="0"
         result="offset"
         id="feOffset4006" />
      <feComposite
         in="SourceGraphic"
         in2="offset"
         operator="over"
         result="composite2"
         id="feComposite4008" />
    </filter>
  </defs>
  <sodipodi:namedview
     id="base"
     pagecolor="#ffffff"
     bordercolor="#666666"
     borderopacity="1.0"
     inkscape:pageopacity="0.0"
     inkscape:pageshadow="2"
     inkscape:zoom="0.7"
     inkscape:cx="540.01226"
     inkscape:cy="518.80509"
     inkscape:document-units="px"
     inkscape:current-layer="layer1"
     showgrid="false"
     inkscape:window-width="1366"
     inkscape:window-height="706"
     inkscape:window-x="-8"
     inkscape:window-y="-8"
     inkscape:window-maximized="1" />
  <metadata
     id="metadata7">
    <rdf:RDF>
      <cc:Work
         rdf:about="">
        <dc:format>image/svg+xml</dc:format>
        <dc:type
           rdf:resource="http://purl.org/dc/dcmitype/StillImage" />
        <dc:title></dc:title>
      </cc:Work>
    </rdf:RDF>
  </metadata>
  <g
     inkscape:label="Layer 1"
     inkscape:groupmode="layer"
     id="layer1">
    <g
       id="g3535"
       transform="translate(-129.5736,85.241491)"
       style="filter:url(#filter3998)">
      <g
         id="_x23_ffccccff">
        <path
           id="path3499"
           d="m 211.61,102.53 c 1.03,-0.04 2.053,-0.08 3.08,-0.13 -0.027,0.2 -0.09,0.62 -0.12,0.82 -0.077,0.6 -0.25,1.79 -0.34,2.39 38.271,40.79 76.09,82.01 114.24,122.92 8.42,9.12 16.63,18.45 25.58,27.07 -37.12,19.78 -74.57,38.98 -111.82,58.55 -10.31,5.68 -21.13,10.42 -31.13,16.67 -1.107,-22.26 0.3,-44.54 0.09,-66.81 -0.22,-10.18 0.82,-20.43 -0.64,-30.54 -0.12,-22.83 0.15,-45.68 0.28,-68.52 0.438,-1.95 0.47,-3.95 0.47,-5.93 0.01,-18.83 0.42,-37.66 0.31,-56.49 z"
           inkscape:connector-curvature="0"
           style="fill:#ffcccc" />
        <path
           id="path3501"
           d="m 788.287,102.91 c 0.58,-0.01 1.723,-0.02 2.29,-0.02 -0.868,20.35 -0.3,40.72 -0.35,61.08 0.57,27.01 0.31,54.021 0.45,81.021 -0.03,27.97 0.5,55.95 0.2,83.92 -41.21,-21.78 -82.65,-43.15 -123.91,-64.83 -6.28,-3.4 -12.83,-6.26 -18.91,-10 17.91,-18.44 35.01,-37.63 52.63,-56.34 25,-27.01 50.03,-53.98 75.07,-80.95 1.97,-2.1 4.47,-3.98 5.357,-6.84 0.223,-1.56 1.37,-2.51 2.62,-3.29 1.593,-1.161 3.066,-2.461 4.553,-3.751 z"
           inkscape:connector-curvature="0"
           style="fill:#ffcccc" />
      </g>
      <g
         id="_x23_ffffffff">
        <path
           id="path3504"
           d="m 788.287,102.26 c 1.08,0.09 2.183,0.18 3.28,0.26 -0.21,14.68 0.25,29.36 0.03,44.04 l 1.09,-0.05 c -0.34,1 -1.03,2.98 -1.38,3.97 l 1.09,-0.06 c -0.069,20.51 0.23,41.03 0.28,61.54 0.25,8.41 -0.55,16.82 -0.08,25.22 0.06,-10.78 0.58,-21.56 0.87,-32.34 -0.33,29.41 0.08,58.82 0.26,88.24 0.4,1.27 0.601,2.57 0.601,3.91 0.039,10.95 0.039,21.9 0.172,32.85 -0.03,1.4 1.25,2.32 2.06,3.32 25.45,26.06 46.31,56.89 59.3,91.02 13.13,34.183 17.96,71.563 13.54,107.933 -4.688,40.33 -20.8,78.92 -44.39,111.817 -43.75,-11.35 -87.51,-22.647 -131.25,-34.027 -1.16,3.09 -2.313,6.18 -3.45,9.277 43.13,11.08 86.17,22.5 129.34,33.38 -1.1,0.57 -2.16,1.21 -2.85,2.28 -36.12,45.61 -85.36,79.69 -138.683,102.25 -72.197,30.47 -152.38,40.5 -230.09,31.98 -47.59,-5.28 -94.479,-17.83 -137.91,-38.103 -47.197,-22.1 -90.72,-53.479 -123.407,-94.34 -0.103,-0.29 -0.3,-0.86 -0.4,-1.148 12.9,-4.602 26.17,-8.142 39.221,-12.329 21.729,-6.69 43.472,-13.37 65.199,-20.053 -0.988,-3.18 -1.979,-6.35 -2.96,-9.527 -36.22,11.119 -72.41,22.277 -108.62,33.39 -22.54,-30.72 -38.75,-66.37 -45.01,-104.07 -5.53,-32.527 -3.7,-66.25 5.18,-98.02 9.65,-34.86 27.66,-67.11 50.813,-94.78 6.03,-7.47 12.95,-14.15 19.24,-21.39 0,-20.07 0.317,-40.15 0.26,-60.22 l 0.76,0.08 c -0.08,-11.69 -0.04,-23.4 0.16,-35.09 1.46,10.11 0.42,20.36 0.64,30.54 0.21,22.271 -1.197,44.55 -0.09,66.81 10,-6.25 20.82,-10.99 31.13,-16.67 37.25,-19.57 74.7,-38.77 111.82,-58.55 -8.95,-8.62 -17.16,-17.95 -25.58,-27.07 -38.148,-40.91 -75.97,-82.13 -114.24,-122.92 0.092,-0.6 0.263,-1.79 0.342,-2.39 1.328,0.85 2.648,1.72 4,2.54 l -0.149,0.57 c 1.04,0.45 2.09,0.91 3.149,1.36 l -0.182,0.92 1.12,-0.14 0.101,0.61 c 1.069,0.69 2.109,1.43 3.142,2.18 1.26,0.83 2.5,1.7 3.76,2.54 l -0.03,0.41 c 0.893,0.47 1.771,0.96 2.65,1.46 0.38,0.28 1.16,0.83 1.54,1.1 l -0.16,0.96 c 0.49,-0.12 1.47,-0.34 1.96,-0.45 l -0.12,1.32 1.262,-0.26 -0.172,0.86 c 0.961,0.49 1.922,0.98 2.87,1.5 0.222,0.23 0.67,0.7 0.893,0.93 2.39,1.79 4.8,3.55 7.3,5.19 l -0.063,0.44 c 1.021,0.521 2.052,1.021 3.08,1.53 l -0.119,0.95 1.222,-0.44 -0.16,1.36 c 0.49,-0.09 1.479,-0.25 1.97,-0.33 l -0.06,0.96 c 0.35,0.33 1.028,0.98 1.38,1.3 0.27,-0.01 0.83,-0.03 1.108,-0.04 0.729,1.14 1.812,1.94 3.052,2.46 0.729,0.62 1.479,1.22 2.238,1.81 1.449,0.979 2.859,2.03 4.319,3 l 0,0.45 c 1.021,0.5 2.05,1 3.08,1.5 l -0.149,0.44 c 1.359,0.85 2.699,1.75 4.069,2.6 l 0.09,0.24 c 0.87,0.61 1.73,1.24 2.591,1.89 1.039,0.57 2.039,1.23 2.939,2.01 1.38,1.04 2.79,2.02 4.24,2.96 l 0.13,0.36 c 0.35,0.22 1.05,0.66 1.41,0.88 2.3,1.67 4.59,3.35 6.817,5.1 0.933,0.54 1.86,1.07 2.802,1.58 l 0.04,0.82 c 0.448,-0.03 1.358,-0.09 1.818,-0.12 0.05,0.37 0.16,1.11 0.222,1.479 1.261,0.5 2.418,1.22 3.538,1.99 0.932,0.7 1.88,1.39 2.84,2.08 0.973,0.83 1.94,1.67 2.91,2.53 0.393,0 1.17,0 1.57,0 0.04,0.47 0.14,1.4 0.18,1.87 0.36,-0.01 1.07,-0.03 1.42,-0.04 1.12,0.89 2.262,1.74 3.473,2.51 l -0.08,0.74 1.239,-0.38 -0.229,1.04 c 0.609,0.14 1.83,0.43 2.439,0.58 0.21,0.36 0.618,1.07 0.818,1.42 0.84,0.43 1.682,0.87 2.521,1.31 0.329,0.28 0.979,0.84 1.31,1.13 l 0.05,0.3 c 2.271,1.44 4.46,3.021 6.563,4.7 1.09,0.71 2.18,1.43 3.29,2.11 l -0.04,0.78 1.29,-0.29 -0.19,1.37 c 0.49,-0.12 1.49,-0.35 1.98,-0.47 l -0.131,1.36 1.33,-0.32 -0.271,0.93 c 0.93,0.47 1.86,0.94 2.79,1.43 0.33,0.27 1,0.8 1.33,1.07 l 0.14,0.3 c 1.07,0.7 2.11,1.44 3.16,2.18 1.229,0.85 2.44,1.74 3.7,2.57 l -0.062,0.48 c 1.021,0.49 2.052,0.98 3.079,1.47 l -0.14,0.91 1.22,-0.29 -0.147,1.27 c 0.38,-0.05 1.14,-0.14 1.52,-0.18 0.55,1.271 1.67,1.99 2.91,2.51 1.74,1.28 3.521,2.52 5.31,3.73 2.28,1.73 4.563,3.46 6.933,5.09 1.397,1.03 2.8,2.09 4.22,3.1 l 0.16,0.28 c 1.02,0.38 1.859,1 2.54,1.85 1.18,0.41 2.29,0.979 2.979,2.07 1.271,0.45 2.422,1.11 3.021,2.4 0.35,-0.03 1.06,-0.09 1.41,-0.12 l -0.021,0.83 c 2.37,1.59 4.75,3.2 6.8,5.19 0.313,0 0.933,-0.01 1.24,-0.021 l 0,1.17 0.67,0.02 c 1.021,0.59 2.103,1.08 3.19,1.55 0.04,0.34 0.13,1.03 0.17,1.38 22.33,-4.73 44.83,-8.86 67.609,-10.67 32.858,-2.86 66,-2.35 98.75,1.55 17.898,2.01 35.568,5.54 53.17,9.31 0.591,-0.4 1.778,-1.2 2.381,-1.6 l 0.067,-0.3 c 0.353,-0.23 1.063,-0.69 1.41,-0.92 0.972,-0.7 1.95,-1.39 2.94,-2.09 1.107,-0.83 2.22,-1.67 3.357,-2.47 1.94,-1.48 3.9,-2.94 5.893,-4.35 1.22,-0.54 2.317,-1.29 2.897,-2.55 0.393,0.07 1.15,0.21 1.54,0.28 l -0.14,-1.34 1.28,0.38 -0.24,-0.99 c 0.59,-0.21 1.75,-0.64 2.34,-0.85 0.26,-0.28 0.78,-0.84 1.04,-1.12 1.13,-0.84 2.26,-1.7 3.4,-2.53 1.04,-0.71 2.067,-1.42 3.14,-2.11 l 0.17,-0.34 c 0.34,-0.26 1.01,-0.79 1.34,-1.05 0.762,-0.49 1.53,-0.98 2.313,-1.46 0.35,-0.25 1.06,-0.771 1.409,-1.03 l -0.079,-0.89 c 0.5,0.08 1.5,0.24 2,0.32 l -0.143,-1.38 1.23,0.39 -0.15,-1.33 c 0.51,0.07 1.53,0.2 2.04,0.26 l -0.16,-1.35 1.25,0.31 -0.06,-0.73 c 2.479,-1.57 4.87,-3.3 7.16,-5.15 1.26,-0.85 2.52,-1.71 3.81,-2.53 l -0.04,-0.45 c 0.892,-0.49 1.79,-0.97 2.69,-1.47 0.34,-0.26 1,-0.79 1.34,-1.05 l 0.149,-0.29 c 3.25,-2.13 6.448,-4.36 9.521,-6.75 0.37,-0.21 1.1,-0.65 1.47,-0.86 l -0.05,-0.87 c 0.39,0.03 1.17,0.09 1.56,0.12 0.383,-0.54 1.15,-1.61 1.53,-2.15 0.29,-0.01 0.88,-0.021 1.17,-0.03 1.512,-1.83 3.61,-2.99 5.603,-4.22 l 0.18,-0.29 c 2.439,-1.64 4.811,-3.39 7.17,-5.15 1.22,-0.85 2.44,-1.7 3.68,-2.53 l 0.092,-0.36 c 1.471,-0.92 2.881,-1.93 4.351,-2.87 0.96,-0.82 1.91,-1.65 2.88,-2.47 l 0.47,0.09 c 1.15,-0.99 2.353,-1.93 3.552,-2.88 0.921,-0.49 1.851,-0.96 2.801,-1.42 l -0.063,-0.44 c 3.23,-2.38 6.82,-4.36 9.65,-7.25 0.33,0.03 1,0.08 1.33,0.11 l -0.07,-1.23 1.23,0.14 -0.16,-1.32 c 0.5,0.1 1.5,0.28 2,0.38 l -0.061,-0.86 c 0.34,-0.29 1.021,-0.88 1.358,-1.17 0.91,-0.44 1.83,-0.9 2.75,-1.36 l -0.069,-0.44 c 2.279,-1.47 4.479,-3.05 6.682,-4.64 0.29,-0.24 0.859,-0.71 1.147,-0.94 1.03,-0.72 2.092,-1.42 3.183,-2.08 l -0.051,-0.72 1.13,0.16 -0.062,-1.24 c 0.49,0.07 1.46,0.22 1.95,0.3 l -0.08,-1.3 1.25,0.22 -0.188,-1.33 c 0.5,0.1 1.488,0.3 1.988,0.39 l -0.14,-1.32 0.85,0.12 c 0.313,-0.26 0.92,-0.771 1.23,-1.03 0.79,-0.66 1.59,-1.33 2.39,-2 l 0.49,0.14 c 0.92,-0.82 1.87,-1.63 2.819,-2.43 0.311,-0.21 0.921,-0.63 1.229,-0.84 1.05,-0.72 2.1,-1.41 3.19,-2.09 l 0.06,-0.3 c 1.53,-1.03 2.93,-2.24 4.32,-3.46 0.29,0.02 0.857,0.07 1.147,0.09 0.32,-1.79 1.91,-2.1 3.433,-2.36 0.04,-0.42 0.107,-1.25 0.147,-1.67 0.38,0.03 1.143,0.1 1.521,0.13 0.96,-0.85 1.96,-1.69 2.938,-2.54 0.33,-0.17 0.99,-0.5 1.313,-0.67 1.31,-1.1 2.59,-2.22 3.88,-3.36 l 0.858,0.89 c -0.891,2.86 -3.391,4.74 -5.358,6.84 -25.04,26.97 -50.07,53.94 -75.07,80.95 -17.62,18.71 -34.72,37.9 -52.63,56.34 6.08,3.74 12.63,6.6 18.91,10 41.26,21.68 82.7,43.05 123.91,64.83 0.3,-27.97 -0.23,-55.95 -0.2,-83.92 -0.141,-27 0.12,-54.01 -0.45,-81.021 0.05,-20.36 -0.52,-40.729 0.352,-61.08 -0.569,0 -1.711,0.01 -2.29,0.02 l 0,-0.648 M 322.657,361.7 c -15.229,2.66 -28.617,14.44 -32.43,29.54 -3.46,12.87 0.41,27.31 9.729,36.81 8.421,8.96 20.971,13.71 33.221,12.84 11.89,-0.607 23.35,-6.607 30.62,-16.04 5.87,-7.55 8.85,-17.32 8.04,-26.857 -0.78,-11.36 -6.95,-22.1 -16.15,-28.75 -9.32,-6.993 -21.61,-9.653 -33.03,-7.543 m 317.903,0.02 c -15.43,2.74 -28.98,14.86 -32.47,30.28 -3.29,13.15 1.119,27.75 10.897,37.08 7.9,7.79 19.021,12.14 30.11,11.88 12.62,-0.01 25.05,-6.14 32.74,-16.15 5.868,-7.567 8.828,-17.37 7.987,-26.917 -0.8,-11.31 -6.96,-22 -16.107,-28.63 -9.35,-7.053 -21.697,-9.663 -33.157,-7.543 m -476.07,120.3 c -1.15,3.11 -2.32,6.223 -3.49,9.33 42.17,15.603 84.317,31.29 126.51,46.853 1.15,-3.11 2.32,-6.21 3.49,-9.313 -42.17,-15.63 -84.32,-31.29 -126.51,-46.87 m 525.54,45.53 c 1.3,3.07 2.643,6.13 4.13,9.12 48.593,-15.26 97.223,-30.38 145.83,-45.57 -1.35,-3.04 -2.68,-6.08 -4.05,-9.1 -48.64,15.18 -97.26,30.41 -145.91,45.55 M 477.78,506.59 c -4.25,4.41 -8.08,9.313 -13,13.021 5.69,0.697 11.433,0.277 17.15,0.39 8.75,-0.1 17.52,0.21 26.27,-0.18 -1.49,-2.57 -2.97,-5.143 -4.43,-7.723 -1.84,-3.39 -3.74,-6.75 -5.61,-10.117 -1.76,-3.143 -3.567,-6.263 -5.067,-9.53 -0.513,-0.021 -1.54,-0.05 -2.053,-0.07 -4.04,5.089 -8.95,9.369 -13.26,14.209 m 1.54,65.37 c -1.08,1.93 -2.88,3.37 -4.3,5.05 -15.34,16.683 -30.68,33.36 -46.01,50.063 3.857,3.567 7.77,7.09 11.607,10.697 15.4,-16.6 30.69,-33.31 46,-50.01 14,18.021 27.883,36.143 41.763,54.24 4.229,-3.16 8.38,-6.44 12.59,-9.61 -15.181,-19.87 -30.48,-39.647 -45.71,-59.479 0.46,-15.47 0.92,-30.95 1.41,-46.42 -5.29,-0.183 -10.57,-0.32 -15.853,-0.5 -0.547,15.319 -0.78,30.659 -1.497,45.969 m 212.67,-2.99 c 0,3.24 0.05,6.48 0.103,9.73 48.63,-0.37 97.27,-0.7 145.897,-0.97 0.011,-3.25 -0.05,-6.5 -0.06,-9.74 -48.65,0.36 -97.29,0.65 -145.94,0.98 m -529.22,1.49 c 0,3.33 -0.01,6.66 -0.06,10 42.17,0.24 84.34,0.7 126.51,0.94 0.01,-3.313 0.01,-6.61 0.09,-9.91 -42.18,-0.42 -84.36,-0.67 -126.54,-1.03 z"
           inkscape:connector-curvature="0"
           style="fill:#ffffff" />
        <rect
           id="rect3506"
           height="71.699997"
           width="103.47"
           y="466.5"
           x="437.5"
           style="fill:#ffffff" />
      </g>
      <g
         id="_x23_000000ff">
        <path
           id="path3509"
           d="m 322.657,361.7 c 11.42,-2.11 23.71,0.55 33.03,7.54 9.2,6.65 15.37,17.39 16.15,28.75 0.81,9.54 -2.17,19.31 -8.04,26.857 -7.271,9.433 -18.73,15.433 -30.62,16.04 -12.25,0.87 -24.8,-3.88 -33.221,-12.84 -9.319,-9.5 -13.189,-23.94 -9.729,-36.81 3.813,-15.097 17.203,-26.877 32.43,-29.537 z"
           inkscape:connector-curvature="0" />
        <path
           id="path3511"
           d="m 640.56,361.72 c 11.46,-2.12 23.81,0.49 33.16,7.54 9.147,6.63 15.31,17.32 16.107,28.63 0.843,9.55 -2.119,19.35 -7.987,26.917 -7.69,10.013 -20.12,16.143 -32.74,16.15 -11.09,0.26 -22.21,-4.09 -30.11,-11.88 -9.777,-9.33 -14.188,-23.93 -10.897,-37.08 3.484,-15.417 17.037,-27.537 32.467,-30.277 z"
           inkscape:connector-curvature="0" />
        <path
           id="path3513"
           d="m 164.49,482.02 c 42.188,15.58 84.34,31.24 126.51,46.87 -1.17,3.103 -2.34,6.2 -3.49,9.313 C 245.32,522.64 203.17,506.95 161,491.35 c 1.17,-3.11 2.34,-6.22 3.49,-9.33 z"
           inkscape:connector-curvature="0" />
        <path
           id="path3515"
           d="m 690.03,527.55 c 48.65,-15.14 97.271,-30.37 145.91,-45.55 1.37,3.02 2.7,6.06 4.05,9.1 -48.607,15.19 -97.237,30.313 -145.83,45.57 -1.49,-2.99 -2.833,-6.05 -4.13,-9.12 z"
           inkscape:connector-curvature="0" />
        <path
           id="path3517"
           d="m 479.572,571.96 c 0.688,-15.31 0.907,-30.65 1.433,-45.97 5.048,0.18 10.094,0.317 15.148,0.5 -0.468,15.47 -0.907,30.95 -1.347,46.42 14.555,19.83 29.177,39.607 43.685,59.479 -4.022,3.17 -7.989,6.45 -12.031,9.61 -13.267,-18.1 -26.531,-36.22 -39.912,-54.24 -14.631,16.7 -29.243,33.41 -43.961,50.01 -3.67,-3.607 -7.408,-7.13 -11.096,-10.697 14.652,-16.7 29.313,-33.38 43.972,-50.063 1.355,-1.679 3.075,-3.119 4.109,-5.049 z"
           stroke-miterlimit="10"
           inkscape:connector-curvature="0"
           style="stroke:#000000;stroke-width:4;stroke-miterlimit:10" />
        <path
           id="path3519"
           d="m 691.99,568.97 c 48.65,-0.33 97.29,-0.62 145.94,-0.979 0.01,3.239 0.07,6.489 0.06,9.739 -48.63,0.271 -97.27,0.601 -145.897,0.971 -0.056,-3.251 -0.103,-6.491 -0.103,-9.731 z"
           inkscape:connector-curvature="0" />
        <path
           id="path3521"
           d="m 162.77,570.46 c 42.183,0.36 84.36,0.61 126.54,1.03 -0.08,3.3 -0.08,6.6 -0.09,9.91 -42.17,-0.24 -84.34,-0.7 -126.51,-0.94 0.05,-3.34 0.06,-6.67 0.06,-10 z"
           inkscape:connector-curvature="0" />
        <path
           id="path3523"
           d="m 693.76,609.9 c 43.74,11.38 87.5,22.68 131.25,34.027 4.88,1.263 9.75,2.53 14.63,3.78 -1.09,3.062 -2.2,6.12 -3.271,9.2 -5.617,-1.26 -11.197,-2.73 -16.72,-4.353 -43.17,-10.88 -86.21,-22.3 -129.34,-33.38 1.139,-3.094 2.291,-6.184 3.451,-9.274 z"
           inkscape:connector-curvature="0" />
        <path
           id="path3525"
           d="m 179.15,646.96 c 36.21,-11.11 72.4,-22.27 108.62,-33.39 0.98,3.18 1.97,6.35 2.96,9.527 -21.729,6.683 -43.47,13.36 -65.2,20.053 -13.05,4.188 -26.317,7.729 -39.22,12.33 0.103,0.289 0.3,0.857 0.4,1.147 -0.76,-0.3 -1.51,-0.608 -2.25,-0.91 -6.722,2.17 -13.48,4.2 -20.24,6.263 -0.97,-3.172 -1.95,-6.33 -2.96,-9.48 5.95,-1.89 11.93,-3.69 17.89,-5.54 z"
           inkscape:connector-curvature="0" />
        <polyline
           id="polyline3527"
           points="468.259,510.11 510.211,510.11 489.235,540.589  " />
      </g>
    </g>
  </g>
</svg>
